<svg width="235" height="39" viewBox="0 0 235 39" fill="none" xmlns="http://www.w3.org/2000/svg">
<path d="M17.7069 36.9677C16.1588 36.9677 14.8364 36.2581 13.7398 34.8387C12.6432 33.3871 12.0949 31.2258 12.0949 28.3548C12.0949 23.2581 14.272 16.7097 18.6261 8.70968C17.6908 8.45161 16.8683 8.32258 16.1588 8.32258C14.5784 8.32258 13.2399 8.74194 12.1433 9.58064C11.0789 10.4194 10.5467 11.4516 10.5467 12.6774C10.5467 13.3548 10.7241 13.9355 11.0789 14.4194C11.4337 14.871 11.8691 15.0968 12.3852 15.0968C12.5142 15.4839 12.5787 15.7903 12.5787 16.0161C12.5787 16.7903 12.3045 17.5968 11.7562 18.4355C11.2079 19.2742 10.4338 19.9839 9.434 20.5645C8.46641 21.1129 7.33756 21.3871 6.04744 21.3871C4.14451 21.3871 2.66087 20.6935 1.59652 19.3065C0.532174 17.9194 0 16.2419 0 14.2742C0 11.8871 0.757945 9.67742 2.27384 7.64516C3.75747 5.6129 5.83779 4 8.51479 2.80645C11.1595 1.58065 14.1268 0.967744 17.4166 0.967744C19.9324 0.967744 21.7063 1.35484 22.7384 2.12903C23.8027 2.87097 24.3349 4.01613 24.3349 5.56452C24.3349 6.43548 24.1736 7.54839 23.8511 8.90323L23.5608 10.1129C22.561 14.5323 21.8837 17.629 21.5289 19.4032C21.1741 21.1774 20.9967 22.5484 20.9967 23.5161C20.9967 24.2903 21.1096 24.8548 21.3354 25.2097C21.5611 25.5323 21.932 25.6935 22.4481 25.6935C23.3189 25.6935 24.1414 24.8871 24.9154 23.2742C25.7218 21.6613 26.6571 18.9355 27.7215 15.0968C28.1085 13.7097 28.5278 12.0484 28.9793 10.1129C29.4954 7.98387 29.9308 6.40323 30.2856 5.37097C30.6403 4.30645 31.1241 3.46774 31.737 2.85484C32.382 2.24194 33.2367 1.93548 34.3011 1.93548C35.4299 1.93548 36.3975 2.25806 37.2038 2.90323C38.0424 3.54839 38.4617 4.43548 38.4617 5.56452C38.4617 6.40323 38.3004 7.22581 37.9779 8.03226C37.6876 8.80645 37.22 9.79032 36.5749 10.9839C35.9943 12.1452 35.5267 13.129 35.1719 13.9355C34.8494 14.7097 34.5913 15.5484 34.3978 16.4516C33.9785 18.6452 33.7689 20.4677 33.7689 21.9194C33.7689 23.1452 33.8979 24.0806 34.1559 24.7258C34.414 25.371 34.7365 25.6935 35.1235 25.6935C35.8976 25.6935 36.5426 25.1452 37.0587 24.0484C37.607 22.9194 38.2521 21.129 38.9939 18.6774L39.4293 17.2742C41.2677 11.2742 43.4125 6.90323 45.8638 4.16129C48.3472 1.3871 51.2016 0 54.4269 0C56.5556 0 58.2005 0.548388 59.3616 1.64516C60.5228 2.70968 61.1033 4 61.1033 5.51613C61.1033 6.96774 60.5873 8.22581 59.5552 9.29032C58.5553 10.3548 57.1846 10.8871 55.4429 10.8871C54.8301 10.8871 54.3463 10.8387 53.9915 10.7419C53.669 10.6452 53.3303 10.5 52.9756 10.3065C52.911 10.2742 52.7337 10.2097 52.4434 10.1129C52.1531 9.98387 51.7983 9.91936 51.379 9.91936C49.9921 9.91936 48.8633 10.4516 47.9925 11.5161C47.1539 12.5806 46.4766 13.9194 45.9605 15.5323C45.4767 17.1129 44.9446 19.2742 44.364 22.0161C43.6544 25.2742 42.9771 27.8871 42.3321 29.8548C41.687 31.8226 40.7194 33.5 39.4293 34.8871C38.1714 36.2742 36.4943 36.9677 34.3978 36.9677C32.8174 36.9677 31.5112 36.4193 30.4791 35.3226C29.447 34.2258 28.9309 32.5 28.9309 30.1452C28.9309 29.0484 29.0116 28.0645 29.1728 27.1935L29.2212 26.8064C29.2212 26.4839 29.1567 26.2419 29.0277 26.0806C28.8987 25.9194 28.7213 25.8387 28.4955 25.8387C28.2698 25.8387 28.0279 25.9516 27.7698 26.1774C27.5441 26.4032 27.3667 26.7419 27.2377 27.1935C26.2056 30.6452 24.8187 33.1452 23.077 34.6935C21.3354 36.2097 19.5453 36.9677 17.7069 36.9677Z" fill="#F57878"/>
<path d="M54.9848 36.9677C52.2433 36.9677 50.163 36.0806 48.7439 34.3065C47.3247 32.5 46.6152 30.2419 46.6152 27.5323C46.6152 25.2097 47.1312 22.9032 48.1633 20.6129C49.1954 18.3226 50.679 16.4516 52.6142 15C54.5494 13.5161 56.7749 12.7742 59.2906 12.7742C61.4193 12.7742 63.0319 13.3548 64.1285 14.5161C65.2251 15.6774 65.7734 17.129 65.7734 18.871C65.7734 20.0645 65.4348 21.2419 64.7575 22.4032C64.1124 23.5645 63.1932 24.5161 61.9998 25.2581C60.8387 26 59.5002 26.371 57.9843 26.371C56.3717 26.371 55.1138 26.1129 54.2107 25.5968C54.0817 25.5323 53.985 25.5 53.9205 25.5C53.7592 25.5 53.6302 25.5645 53.5334 25.6935C53.4367 25.7903 53.3883 25.9516 53.3883 26.1774C53.3883 26.9839 53.856 27.6129 54.7913 28.0645C55.7589 28.5161 56.9684 28.7419 58.4198 28.7419C60.1614 28.7419 61.9031 28.3064 63.6447 27.4355C65.3864 26.5645 66.7733 25.3226 67.8054 23.7097C67.9989 23.4194 68.2569 23.2742 68.5795 23.2742C69.031 23.2742 69.418 23.4677 69.7406 23.8548C70.0953 24.2419 70.176 24.5968 69.9825 24.9194C67.8538 28.8871 65.5154 31.8871 62.9674 33.9194C60.4517 35.9516 57.7908 36.9677 54.9848 36.9677ZM56.7265 22.7419C57.5973 22.7419 58.3069 22.4677 58.8552 21.9194C59.4357 21.3387 59.726 20.7097 59.726 20.0323C59.726 19.4516 59.5325 18.9839 59.1454 18.629C58.7584 18.2419 58.2101 18.0484 57.5005 18.0484C56.5975 18.0484 55.8556 18.3226 55.2751 18.871C54.7268 19.4194 54.4526 20.0484 54.4526 20.7581C54.4526 21.3387 54.6462 21.8226 55.0332 22.2097C55.4202 22.5645 55.9847 22.7419 56.7265 22.7419Z" fill="#F57878"/>
<path d="M89.8513 23.7097C89.9803 23.4839 90.2222 23.371 90.577 23.371C91.0285 23.371 91.4317 23.5323 91.7865 23.8548C92.1413 24.1774 92.2219 24.5323 92.0284 24.9194C91.1576 26.7258 90.061 28.2581 88.7386 29.5161C87.4162 30.7419 85.7229 31.4194 83.6587 31.5484C82.4331 33.2258 81.0462 34.5484 79.4981 35.5161C77.95 36.4839 76.4018 36.9677 74.8537 36.9677C72.5314 36.9677 70.6285 36.1774 69.1449 34.5968C67.6612 33.0161 66.9194 30.9677 66.9194 28.4516C66.9194 26.9677 67.2097 25.3871 67.7903 23.7097C67.9193 23.3871 68.0805 22.9032 68.2741 22.2581L71.4671 13.2097C72.9185 9.27419 74.1764 6.45161 75.2407 4.74194C76.3051 3.03226 77.4984 2.17742 78.8208 2.17742C80.1109 2.17742 80.756 2.75807 80.756 3.91936C80.756 4.66129 80.4979 5.59678 79.9819 6.72581C79.6916 7.40323 79.5142 7.82258 79.4497 7.98387C78.1273 10.8871 77.2888 13.0323 76.934 14.4194L76.8856 14.6129C76.8856 14.7419 76.934 14.8548 77.0307 14.9516C77.1275 15.0484 77.2565 15.0968 77.4178 15.0968C77.7081 15.0968 77.9822 14.9677 78.2402 14.7097C78.8853 14.0645 79.5465 13.5806 80.2238 13.2581C80.9334 12.9355 81.5945 12.7742 82.2074 12.7742C85.7229 12.7742 87.4807 15.0645 87.4807 19.6452C87.4807 21.7419 87.1421 23.8548 86.4648 25.9839C87.8194 25.7903 88.9482 25.0323 89.8513 23.7097ZM74.2247 24.3387C74.2247 25.1129 74.4183 25.7419 74.8053 26.2258C75.2246 26.7097 75.8696 26.9516 76.7405 26.9516C77.5145 26.9516 78.208 26.7258 78.8208 26.2742C79.4659 25.7903 79.9658 25.1935 80.3206 24.4839C80.6753 23.7742 80.8527 23.0806 80.8527 22.4032C80.8527 21.6613 80.627 21.0484 80.1754 20.5645C79.7561 20.0806 79.0949 19.8387 78.1919 19.8387C77.063 19.8387 76.1115 20.3065 75.3375 21.2419C74.5956 22.1774 74.2247 23.2097 74.2247 24.3387Z" fill="#F57878"/>
<path d="M99.7234 39C97.5947 39 95.6756 38.5645 93.9662 37.6936C92.2891 36.8226 90.9667 35.5323 89.9991 33.8226C89.0315 32.1129 88.5477 30.0484 88.5477 27.629C88.5477 25.2742 88.967 23.3387 89.8056 21.8226C90.6442 20.3064 91.644 19.2097 92.8051 18.5323C93.9985 17.8548 95.1435 17.5161 96.2401 17.5161C96.8529 17.5161 97.3367 17.629 97.6914 17.8548C98.0462 18.0806 98.2236 18.371 98.2236 18.7258C98.2236 19.0484 98.0301 19.4032 97.6431 19.7903C97.2883 20.1774 97.0141 20.5645 96.8206 20.9516C96.6271 21.3387 96.5303 21.8871 96.5303 22.5968C96.5303 23.9194 96.8851 24.9677 97.5947 25.7419C98.3042 26.4839 99.288 26.8548 100.546 26.8548C101.707 26.8548 102.658 26.4839 103.4 25.7419C104.142 25 104.513 24.0323 104.513 22.8387C104.513 22.0968 104.336 21.3548 103.981 20.6129C103.658 19.871 103.158 18.9194 102.481 17.7581C101.578 16.2097 100.868 14.8387 100.352 13.6452C99.8685 12.4516 99.6266 11.129 99.6266 9.67742C99.6266 8.12903 99.9653 6.69355 100.643 5.37097C101.32 4.04839 102.352 2.98387 103.739 2.17742C105.158 1.37097 106.9 0.967744 108.964 0.967744C111.609 0.967744 113.576 1.62903 114.866 2.95161C116.156 4.27419 116.801 5.90322 116.801 7.83871C116.801 9.29032 116.414 10.6452 115.64 11.9032C114.866 13.1613 113.818 14.129 112.496 14.8065C112.399 14.9677 112.238 15.0484 112.012 15.0484C111.657 15.0484 111.286 14.8871 110.899 14.5645C110.512 14.2097 110.318 13.871 110.318 13.5484C110.318 13.3871 110.367 13.2581 110.464 13.1613C110.883 12.6452 111.093 11.9194 111.093 10.9839C111.093 10.3065 110.915 9.74194 110.56 9.29032C110.238 8.80645 109.69 8.56452 108.915 8.56452C108.045 8.56452 107.319 8.85484 106.738 9.43548C106.19 10.0161 105.916 10.9032 105.916 12.0968C105.916 12.9677 106.126 13.8387 106.545 14.7097C106.964 15.5484 107.625 16.6774 108.528 18.0968C109.625 19.8064 110.464 21.2903 111.044 22.5484C111.625 23.8064 111.915 25.1613 111.915 26.6129C111.915 29 111.383 31.129 110.318 33C109.286 34.871 107.851 36.3387 106.013 37.4032C104.174 38.4677 102.078 39 99.7234 39Z" fill="#F57878"/>
<path d="M122.877 36.9677C120.135 36.9677 118.055 36.0806 116.636 34.3065C115.217 32.5 114.507 30.2419 114.507 27.5323C114.507 25.2097 115.023 22.9032 116.055 20.6129C117.087 18.3226 118.571 16.4516 120.506 15C122.441 13.5161 124.667 12.7742 127.183 12.7742C129.311 12.7742 130.924 13.3548 132.02 14.5161C133.117 15.6774 133.665 17.129 133.665 18.871C133.665 20.0645 133.327 21.2419 132.649 22.4032C132.004 23.5645 131.085 24.5161 129.892 25.2581C128.731 26 127.392 26.371 125.876 26.371C124.264 26.371 123.006 26.1129 122.103 25.5968C121.974 25.5323 121.877 25.5 121.812 25.5C121.651 25.5 121.522 25.5645 121.425 25.6935C121.329 25.7903 121.28 25.9516 121.28 26.1774C121.28 26.9839 121.748 27.6129 122.683 28.0645C123.651 28.5161 124.86 28.7419 126.312 28.7419C128.053 28.7419 129.795 28.3064 131.537 27.4355C133.278 26.5645 134.665 25.3226 135.697 23.7097C135.891 23.4194 136.149 23.2742 136.471 23.2742C136.923 23.2742 137.31 23.4677 137.632 23.8548C137.987 24.2419 138.068 24.5968 137.874 24.9194C135.746 28.8871 133.407 31.8871 130.859 33.9194C128.344 35.9516 125.683 36.9677 122.877 36.9677ZM124.618 22.7419C125.489 22.7419 126.199 22.4677 126.747 21.9194C127.328 21.3387 127.618 20.7097 127.618 20.0323C127.618 19.4516 127.424 18.9839 127.037 18.629C126.65 18.2419 126.102 18.0484 125.392 18.0484C124.489 18.0484 123.748 18.3226 123.167 18.871C122.619 19.4194 122.345 20.0484 122.345 20.7581C122.345 21.3387 122.538 21.8226 122.925 22.2097C123.312 22.5645 123.877 22.7419 124.618 22.7419Z" fill="#F57878"/>
<path d="M137.617 36.9677C136.521 36.9677 135.65 36.6452 135.005 36C134.392 35.3226 134.086 34.4677 134.086 33.4355C134.086 30.7581 134.618 27.5161 135.682 23.7097C136.521 20.6774 137.488 18.0968 138.585 15.9677C139.682 13.8387 140.649 12.7742 141.488 12.7742C142.552 12.7742 143.084 13.3871 143.084 14.6129C143.084 15.8065 143.407 16.4032 144.052 16.4032C144.503 16.4032 145.019 16.1129 145.6 15.5323C147.503 13.6936 149.454 12.7742 151.454 12.7742C152.873 12.7742 153.954 13.1935 154.695 14.0323C155.437 14.871 155.808 15.9355 155.808 17.2258C155.808 17.8065 155.744 18.3387 155.615 18.8226C155.486 19.2742 155.292 19.871 155.034 20.6129C154.776 21.2581 154.582 21.8064 154.453 22.2581C154.324 22.7097 154.26 23.2097 154.26 23.7581C154.26 24.5968 154.437 25.2097 154.792 25.5968C155.179 25.9839 155.776 26.1774 156.582 26.1774C157.259 26.1774 157.84 25.9839 158.324 25.5968C158.84 25.1774 159.372 24.5484 159.92 23.7097C160.114 23.4194 160.372 23.2742 160.694 23.2742C161.146 23.2742 161.533 23.4677 161.855 23.8548C162.21 24.2419 162.291 24.5968 162.097 24.9194L161.178 26.7097C160.275 28.5806 159.388 30.2097 158.517 31.5968C157.679 32.9839 156.582 34.2258 155.228 35.3226C153.905 36.4193 152.405 36.9677 150.728 36.9677C149.309 36.9677 148.261 36.5 147.584 35.5645C146.938 34.629 146.616 33.4194 146.616 31.9355C146.616 31 146.729 30.0968 146.955 29.2258C147.18 28.3226 147.487 27.3065 147.874 26.1774C147.938 25.9839 148.083 25.5323 148.309 24.8226C148.535 24.0806 148.648 23.4839 148.648 23.0323C148.648 22.4839 148.487 22.0645 148.164 21.7742C147.842 21.4839 147.39 21.3387 146.809 21.3387C145.906 21.3387 145.052 21.7419 144.245 22.5484C143.439 23.3226 142.794 24.3548 142.31 25.6452C141.826 26.9032 141.584 28.2419 141.584 29.6613V31.8387C141.584 35.2581 140.262 36.9677 137.617 36.9677Z" fill="#F57878"/>
<path d="M163.693 36.9677C161.919 36.9677 160.596 36.4193 159.726 35.3226C158.855 34.1935 158.419 32.6935 158.419 30.8226C158.419 29.0484 158.774 27.1613 159.484 25.1613C159.903 23.871 160.613 21.8871 161.612 19.2097L162.58 16.5484C161.774 16.5484 161.161 16.2903 160.742 15.7742C160.355 15.2581 160.161 14.6774 160.161 14.0323C160.161 13.6774 160.209 13.3871 160.306 13.1613C160.435 12.9355 160.613 12.8226 160.838 12.8226C162.129 12.8226 163.193 12.4677 164.031 11.7581C164.87 11.0484 165.483 10.1774 165.87 9.14516C166.418 7.85484 166.95 7 167.466 6.58065C168.015 6.12903 168.627 5.90323 169.305 5.90323C170.466 5.90323 171.046 6.46774 171.046 7.59677C171.046 8.40323 170.772 9.35484 170.224 10.4516C169.837 11.2258 169.643 11.8226 169.643 12.2419C169.643 12.629 169.853 12.8226 170.272 12.8226H172.788C173.014 12.8226 173.191 12.9516 173.32 13.2097C173.449 13.4355 173.514 13.7581 173.514 14.1774C173.514 14.9194 173.32 15.629 172.933 16.3065C172.578 16.9516 172.127 17.2742 171.579 17.2742C169.934 17.2742 168.789 17.3387 168.144 17.4677C167.531 17.5645 167.079 17.8226 166.789 18.2419C166.499 18.6613 166.192 19.4516 165.87 20.6129C165.644 21.4516 165.531 22.1129 165.531 22.5968C165.531 23.6935 165.854 24.5645 166.499 25.2097C167.176 25.8226 168.079 26.129 169.208 26.129C170.143 26.129 170.998 25.9194 171.772 25.5C172.546 25.0806 173.175 24.4839 173.659 23.7097C173.82 23.4516 174.078 23.3226 174.433 23.3226C174.852 23.3226 175.223 23.5161 175.546 23.9032C175.901 24.2581 175.997 24.5968 175.836 24.9194L175.304 25.9839C174.401 27.8548 173.465 29.5484 172.498 31.0645C171.563 32.5484 170.337 33.9032 168.821 35.129C167.305 36.3548 165.596 36.9677 163.693 36.9677Z" fill="#F57878"/>
<path d="M182.279 10.7903C180.989 10.7903 179.957 10.5161 179.183 9.96774C178.409 9.41936 178.022 8.54839 178.022 7.35484C178.022 4.3871 179.634 2.90323 182.86 2.90323C185.892 2.90323 187.295 4.20968 187.069 6.82258C186.811 9.46774 185.214 10.7903 182.279 10.7903ZM176.909 36.9677C175.361 36.9677 174.232 36.4193 173.523 35.3226C172.813 34.2258 172.458 32.7581 172.458 30.9194C172.458 28.6935 172.861 26.2903 173.668 23.7097C174.861 19.9677 175.99 17.2097 177.054 15.4355C178.119 13.6613 179.312 12.7742 180.634 12.7742C181.731 12.7742 182.279 13.5 182.279 14.9516C182.279 15.629 182.182 16.3226 181.989 17.0323C181.795 17.7419 181.505 18.5968 181.118 19.5968C181.054 19.7581 180.925 20.1452 180.731 20.7581C180.538 21.371 180.376 21.9194 180.247 22.4032C180.151 22.8871 180.102 23.3226 180.102 23.7097C180.102 24.4839 180.296 25.0806 180.683 25.5C181.07 25.9194 181.602 26.129 182.279 26.129C182.957 26.129 183.537 25.9355 184.021 25.5484C184.537 25.129 185.069 24.5161 185.617 23.7097C185.811 23.4194 186.069 23.2742 186.391 23.2742C186.811 23.2742 187.182 23.4677 187.504 23.8548C187.859 24.2097 187.956 24.5484 187.794 24.871C187.504 25.3548 187.166 26.0323 186.778 26.9032C185.875 28.7742 185.021 30.3871 184.214 31.7419C183.408 33.0968 182.376 34.3065 181.118 35.371C179.86 36.4355 178.457 36.9677 176.909 36.9677Z" fill="#F57878"/>
<path d="M193.556 36.9677C190.815 36.9677 188.734 36.0806 187.315 34.3065C185.896 32.5 185.187 30.2419 185.187 27.5323C185.187 25.2097 185.703 22.9032 186.735 20.6129C187.767 18.3226 189.25 16.4516 191.186 15C193.121 13.5161 195.346 12.7742 197.862 12.7742C199.991 12.7742 201.603 13.3548 202.7 14.5161C203.796 15.6774 204.345 17.129 204.345 18.871C204.345 20.0645 204.006 21.2419 203.329 22.4032C202.684 23.5645 201.765 24.5161 200.571 25.2581C199.41 26 198.072 26.371 196.556 26.371C194.943 26.371 193.685 26.1129 192.782 25.5968C192.653 25.5323 192.556 25.5 192.492 25.5C192.331 25.5 192.202 25.5645 192.105 25.6935C192.008 25.7903 191.96 25.9516 191.96 26.1774C191.96 26.9839 192.427 27.6129 193.363 28.0645C194.33 28.5161 195.54 28.7419 196.991 28.7419C198.733 28.7419 200.474 28.3064 202.216 27.4355C203.958 26.5645 205.345 25.3226 206.377 23.7097C206.57 23.4194 206.828 23.2742 207.151 23.2742C207.602 23.2742 207.989 23.4677 208.312 23.8548C208.667 24.2419 208.747 24.5968 208.554 24.9194C206.425 28.8871 204.087 31.8871 201.539 33.9194C199.023 35.9516 196.362 36.9677 193.556 36.9677ZM195.298 22.7419C196.169 22.7419 196.878 22.4677 197.427 21.9194C198.007 21.3387 198.297 20.7097 198.297 20.0323C198.297 19.4516 198.104 18.9839 197.717 18.629C197.33 18.2419 196.781 18.0484 196.072 18.0484C195.169 18.0484 194.427 18.3226 193.846 18.871C193.298 19.4194 193.024 20.0484 193.024 20.7581C193.024 21.3387 193.218 21.8226 193.605 22.2097C193.992 22.5645 194.556 22.7419 195.298 22.7419Z" fill="#F57878"/>
<path d="M209.361 36.9677C206.297 36.9677 204.765 35.3064 204.765 31.9839C204.765 29.5968 205.313 26.8387 206.41 23.7097L207.474 20.6129C209.184 15.6452 210.49 12 211.393 9.67742C212.328 7.32258 213.28 5.48387 214.247 4.16129C215.215 2.83871 216.279 2.17742 217.441 2.17742C218.763 2.17742 219.424 2.77419 219.424 3.96774C219.424 4.74194 219.15 5.66129 218.602 6.72581C215.828 12.3065 213.941 16.9355 212.941 20.6129C212.554 21.9355 212.361 23 212.361 23.8065C212.361 24.5484 212.522 25.129 212.844 25.5484C213.199 25.9677 213.796 26.1774 214.634 26.1774C216.183 26.1774 217.489 25.3548 218.553 23.7097C218.747 23.4194 219.005 23.2742 219.327 23.2742C219.779 23.2742 220.166 23.4677 220.488 23.8548C220.843 24.2419 220.924 24.5968 220.73 24.9194L219.811 26.7097C218.908 28.5806 218.021 30.2097 217.15 31.5968C216.312 32.9839 215.215 34.2258 213.86 35.3226C212.538 36.4193 211.038 36.9677 209.361 36.9677Z" fill="#F57878"/>
<path d="M225.856 21.2419C224.502 21.2419 223.276 20.8871 222.179 20.1774C221.083 19.4677 220.212 18.5 219.567 17.2742C218.954 16.0484 218.648 14.6935 218.648 13.2097C218.648 11.4355 219.067 9.77419 219.906 8.22581C220.776 6.67742 221.905 5.43549 223.292 4.5C224.711 3.56452 226.211 3.09677 227.791 3.09677C229.146 3.09677 230.372 3.45161 231.468 4.16129C232.565 4.87097 233.42 5.83871 234.032 7.06452C234.677 8.25807 235 9.59678 235 11.0806C235 12.8548 234.565 14.5323 233.694 16.1129C232.855 17.6613 231.726 18.9032 230.307 19.8387C228.92 20.7742 227.437 21.2419 225.856 21.2419ZM226.05 19.7903C227.372 19.7903 228.614 19.4032 229.775 18.629C230.936 17.8226 231.871 16.7581 232.581 15.4355C233.291 14.1129 233.645 12.6935 233.645 11.1774C233.645 9.27419 233.065 7.69355 231.904 6.43548C230.775 5.14516 229.356 4.5 227.646 4.5C226.324 4.5 225.066 4.90323 223.873 5.70968C222.712 6.48387 221.776 7.53226 221.067 8.85484C220.357 10.1774 220.002 11.5968 220.002 13.1129C220.002 15.0161 220.567 16.6129 221.696 17.9032C222.857 19.1613 224.308 19.7903 226.05 19.7903Z" fill="#F57878"/>
<path d="M225.884 16.8064C224.742 16.8064 223.875 16.4368 223.283 15.6976C222.692 14.9449 222.397 14.004 222.397 12.875C222.397 11.9073 222.605 10.9462 223.021 9.99193C223.451 9.03763 224.056 8.25806 224.836 7.65322C225.615 7.03494 226.509 6.7258 227.517 6.7258C228.431 6.7258 229.123 6.96102 229.593 7.43145C230.063 7.90188 230.298 8.49328 230.298 9.20564C230.298 9.74328 230.191 10.1935 229.976 10.5564C229.774 10.9194 229.512 11.1882 229.19 11.3629C228.881 11.5376 228.565 11.625 228.242 11.625C227.92 11.625 227.664 11.5712 227.476 11.4637C227.288 11.3427 227.194 11.2083 227.194 11.0605C227.194 10.9664 227.241 10.8589 227.335 10.7379C227.429 10.6169 227.503 10.5027 227.557 10.3952C227.624 10.2876 227.658 10.1263 227.658 9.91129C227.658 9.70967 227.591 9.54166 227.456 9.40725C227.322 9.27285 227.114 9.20564 226.831 9.20564C226.401 9.20564 226.052 9.40053 225.783 9.79032C225.528 10.1667 225.4 10.6237 225.4 11.1613C225.4 11.8333 225.615 12.3508 226.045 12.7137C226.489 13.0766 227.046 13.2581 227.718 13.2581C228.35 13.2581 228.988 13.09 229.633 12.754C230.278 12.418 230.823 11.9274 231.266 11.2823C231.347 11.1613 231.454 11.1008 231.589 11.1008C231.777 11.1008 231.938 11.1814 232.072 11.3427C232.22 11.504 232.254 11.6519 232.173 11.7863C231.286 13.4261 230.312 14.6761 229.25 15.5363C228.189 16.3831 227.066 16.8064 225.884 16.8064Z" fill="#F57878"/>
</svg>
