<svg width="24" height="16" viewBox="0 0 24 16" fill="none" xmlns="http://www.w3.org/2000/svg">
<path fill-rule="evenodd" clip-rule="evenodd" d="M0.837891 7.96719C0.837891 7.74849 0.924769 7.53874 1.07941 7.3841C1.23406 7.22946 1.4438 7.14258 1.6625 7.14258H21.1117L15.9216 1.95415C15.7668 1.79931 15.6798 1.5893 15.6798 1.37033C15.6798 1.15135 15.7668 0.941344 15.9216 0.786505C16.0765 0.631665 16.2865 0.544678 16.5054 0.544678C16.7244 0.544678 16.9344 0.631665 17.0893 0.786505L23.6861 7.38336C23.7629 7.45996 23.8238 7.55096 23.8654 7.65114C23.907 7.75132 23.9284 7.85872 23.9284 7.96719C23.9284 8.07565 23.907 8.18305 23.8654 8.28323C23.8238 8.38341 23.7629 8.47441 23.6861 8.55101L17.0893 15.1479C16.9344 15.3027 16.7244 15.3897 16.5054 15.3897C16.2865 15.3897 16.0765 15.3027 15.9216 15.1479C15.7668 14.993 15.6798 14.783 15.6798 14.564C15.6798 14.3451 15.7668 14.1351 15.9216 13.9802L21.1117 8.79179H1.6625C1.4438 8.79179 1.23406 8.70492 1.07941 8.55027C0.924769 8.39563 0.837891 8.18588 0.837891 7.96719V7.96719Z" fill="white"/>
</svg>
