<svg width="24" height="24" viewBox="0 0 24 24" fill="none" xmlns="http://www.w3.org/2000/svg">
<path fill-rule="evenodd" clip-rule="evenodd" d="M23.7324 0.183218C23.8576 0.290274 23.9449 0.435033 23.9812 0.595869C24.0175 0.756705 24.0009 0.924987 23.9338 1.07557C21.5991 6.31664 16.6964 13.5594 13.1074 17.3336C12.1014 18.3894 10.8608 19.1925 9.48636 19.6775C9.4589 20.0244 9.39481 20.4996 9.24222 21.0038C8.93551 22.0108 8.22443 23.2638 6.63594 23.6626C5.09756 24.0294 3.50325 24.0979 1.93915 23.8643C1.64779 23.8183 1.36053 23.7494 1.08005 23.658C0.821566 23.5789 0.580677 23.4508 0.370498 23.2806C0.231595 23.1623 0.124563 23.011 0.0592101 22.8405C-0.0217886 22.6218 -0.0196161 22.3808 0.0653138 22.1636C0.210276 21.7892 0.547506 21.583 0.768764 21.4729C1.36845 21.1719 1.72247 20.7808 2.09174 20.2108C2.23518 19.9908 2.37251 19.757 2.52968 19.4896L2.70821 19.187C2.93863 18.7974 3.20566 18.3619 3.54137 17.8913C4.34705 16.7621 5.37248 16.4779 6.20563 16.5222C6.3979 16.5329 6.57643 16.5604 6.73665 16.5955C6.83126 16.3327 6.95333 16.0149 7.09982 15.6665C7.49809 14.7207 8.10388 13.4983 8.91109 12.5051C12.23 8.42529 18.3413 3.02226 22.8229 0.122098C22.9609 0.0329228 23.1239 -0.00929605 23.2878 0.00171542C23.4516 0.0127269 23.6076 0.0763809 23.7324 0.183218Z" fill="#344756"/>
</svg>
