<svg width="25" height="24" viewBox="0 0 25 24" fill="none" xmlns="http://www.w3.org/2000/svg">
<path d="M5.18416 9.92305L2.20976 12.8974C0.989964 14.1172 0.304688 15.7716 0.304688 17.4967C0.304688 19.2218 0.989964 20.8762 2.20976 22.096C3.42956 23.3158 5.08397 24.001 6.80903 24.001C8.53409 24.001 10.1885 23.3158 11.4083 22.096L15.3713 18.1308C16.1068 17.3952 16.6552 16.4938 16.9703 15.5023C17.2854 14.5109 17.3581 13.4583 17.1823 12.4329C17.0064 11.4076 16.5872 10.4394 15.9597 9.60957C15.3322 8.77978 14.5149 8.11261 13.5762 7.66406L12.3058 8.93447C12.1768 9.06366 12.0646 9.20861 11.972 9.36589C12.6972 9.57438 13.3554 9.96853 13.8817 10.5094C14.4079 11.0502 14.7838 11.7191 14.9724 12.4497C15.1609 13.1804 15.1555 13.9476 14.9566 14.6756C14.7578 15.4035 14.3724 16.0669 13.8385 16.6003L9.87773 20.5632C9.06415 21.3768 7.96069 21.8339 6.81011 21.8339C5.65953 21.8339 4.55608 21.3768 3.74249 20.5632C2.92891 19.7497 2.47184 18.6462 2.47184 17.4956C2.47184 16.345 2.92891 15.2416 3.74249 14.428L5.46166 12.711C5.2191 11.802 5.12539 10.8598 5.18416 9.92088V9.92305Z" fill="#485574"/>
<path d="M9.23857 5.86805C8.50301 6.60372 7.95465 7.50512 7.63953 8.49657C7.32441 9.48802 7.25172 10.5406 7.42757 11.5659C7.60342 12.5913 8.02267 13.5595 8.65013 14.3893C9.27759 15.2191 10.095 15.8863 11.0336 16.3348L12.7138 14.6525C11.9787 14.4553 11.3085 14.0682 10.7705 13.53C10.2325 12.9917 9.84562 12.3214 9.64877 11.5862C9.45192 10.8511 9.45202 10.0771 9.64906 9.34205C9.8461 8.60697 10.2331 7.93671 10.7713 7.39861L14.7321 3.43564C15.5457 2.62205 16.6491 2.16499 17.7997 2.16499C18.9503 2.16499 20.0538 2.62205 20.8673 3.43564C21.6809 4.24922 22.138 5.35268 22.138 6.50326C22.138 7.65384 21.6809 8.75729 20.8673 9.57088L19.1482 11.2879C19.391 12.1984 19.4842 13.1415 19.4257 14.078L22.4001 11.1036C23.6199 9.8838 24.3052 8.2294 24.3052 6.50434C24.3052 4.77928 23.6199 3.12488 22.4001 1.90508C21.1803 0.685277 19.5259 0 17.8008 0C16.0758 0 14.4213 0.685277 13.2015 1.90508L9.23857 5.86805Z" fill="#485574"/>
</svg>
