<svg width="24" height="24" viewBox="0 0 24 24" fill="none" xmlns="http://www.w3.org/2000/svg">
<path d="M2.85714 0.000976562C1.28 0.000976562 0 1.28098 0 2.85812V21.1438C0 22.721 1.28 24.001 2.85714 24.001H21.1429C22.72 24.001 24 22.721 24 21.1438V2.85812C24 1.28098 22.72 0.000976562 21.1429 0.000976562H2.85714ZM12.6685 4.00098C13.7942 4.00098 14.8571 5.01241 14.8571 10.001C14.8571 11.7838 14.5538 14.3729 13.4967 16.5043C13.9538 17.0986 14.4114 17.2867 14.7143 17.1438C15.5714 16.7324 16.1196 15.2868 16.6339 13.7097C16.7768 13.2811 17.252 13.047 17.692 13.1784C18.1377 13.3156 18.3884 13.7723 18.2455 14.1952C17.8113 15.5323 16.5945 18.847 14.7545 18.847C14.1716 18.847 13.3881 18.8239 12.6395 18.0925C11.7995 19.2354 10.7545 20.001 9.51451 20.001C6.89165 20.001 5.71429 18.0071 5.71429 16.03C5.71429 13.9329 6.78906 11.4586 9.21763 11.4586C9.62906 11.4586 10.0058 11.5329 10.3315 11.6472C10.2858 11.0758 10.2857 10.6186 10.2857 9.9329C10.2857 9.87004 10.3085 4.00098 12.6685 4.00098ZM12.7366 5.74428C12.388 6.33857 11.9777 8.07477 11.9777 9.9262C11.9777 11.9376 12.2116 13.4809 12.5658 14.6237C13.0973 13.1552 13.1652 11.4467 13.1652 10.001C13.1652 7.28098 13.0052 6.12142 12.7366 5.74428ZM9.21094 13.1438C7.39379 13.1438 7.42857 15.9605 7.42857 16.0691C7.42857 16.7776 7.59379 18.2867 9.49665 18.2867C10.2281 18.2867 10.9719 17.7037 11.6004 16.6751C11.2176 15.9608 10.8572 14.841 10.6172 13.7153C10.5715 13.681 10.5255 13.647 10.4855 13.607C10.4855 13.607 9.93094 13.1438 9.21094 13.1438Z" fill="#344756"/>
</svg>
