<svg width="24" height="24" viewBox="0 0 24 24" fill="none" xmlns="http://www.w3.org/2000/svg">
<path d="M7.09091 0.000976562C3.18 0.000976562 0 3.18098 0 7.09189V16.9101C0 20.821 3.18 24.001 7.09091 24.001H16.9091C20.82 24.001 24 20.821 24 16.9101V7.09189C24 3.18098 20.82 0.000976562 16.9091 0.000976562H7.09091ZM18.5455 4.36461C19.1455 4.36461 19.6364 4.85552 19.6364 5.45552C19.6364 6.05552 19.1455 6.54643 18.5455 6.54643C17.9455 6.54643 17.4545 6.05552 17.4545 5.45552C17.4545 4.85552 17.9455 4.36461 18.5455 4.36461ZM12 6.00098C15.3109 6.00098 18 8.69007 18 12.001C18 15.3119 15.3109 18.001 12 18.001C8.68909 18.001 6 15.3119 6 12.001C6 8.69007 8.68909 6.00098 12 6.00098ZM12 7.09189C9.29455 7.09189 7.09091 9.29552 7.09091 12.001C7.09091 14.7064 9.29455 16.9101 12 16.9101C14.7055 16.9101 16.9091 14.7064 16.9091 12.001C16.9091 9.29552 14.7055 7.09189 12 7.09189Z" fill="#344756"/>
</svg>
