<svg width="24" height="24" viewBox="0 0 24 24" fill="none" xmlns="http://www.w3.org/2000/svg">
<path d="M2.85714 0.000976562C1.28 0.000976562 0 1.28098 0 2.85812V21.1438C0 22.721 1.28 24.001 2.85714 24.001H21.1429C22.72 24.001 24 22.721 24 21.1438V2.85812C24 1.28098 22.72 0.000976562 21.1429 0.000976562H2.85714ZM4.57143 8.00098H8.41741C8.83455 8.00098 11.0915 7.97258 11.0915 10.0412C11.0915 11.1383 10.3427 11.5094 10.0056 11.6751C10.5084 11.8351 11.4286 12.2981 11.4286 13.7153C11.4286 15.9038 8.91973 16.001 8.58259 16.001H4.57143V8.00098ZM14.2857 8.00098H18.2857V9.14383H14.2857V8.00098ZM6.28571 9.38937V11.2644H8.12612C8.37755 11.2644 9.21094 11.1267 9.21094 10.2867C9.21094 9.44669 8.12554 9.38937 7.95982 9.38937H6.28571ZM16.4174 9.71526C18.646 9.71526 19.2512 11.4523 19.3426 11.8637C19.4283 12.2808 19.4286 12.6467 19.4286 13.1438H14.9141C14.9141 13.641 15.1775 14.761 16.5089 14.761C16.8632 14.761 17.1254 14.6756 17.394 14.5099C17.6568 14.3442 17.7491 14.1834 17.8348 14.0177H19.3371C19.0742 14.6749 18.72 15.1729 18.1886 15.5043C17.6572 15.8358 17.04 16.001 16.3315 16.001C15.8858 16.001 15.4457 15.9156 15 15.7499C14.6457 15.5841 14.2919 15.3382 14.029 15.0925C13.7662 14.8411 13.589 14.5095 13.4118 14.0981C13.2347 13.7666 13.1429 13.2695 13.1429 12.8581C13.1429 12.4467 13.3088 9.71526 16.4174 9.71526ZM16.4174 10.8749C15.126 10.8749 14.9141 12.1152 14.9141 12.1952H17.7489C17.6575 11.7837 17.286 10.8749 16.4174 10.8749ZM6.28571 12.4072V14.6126H8.20089C8.36604 14.6126 9.53125 14.5615 9.53125 13.5501C9.53125 12.5444 8.61575 12.4072 8.20089 12.4072H6.28571Z" fill="#344756"/>
</svg>
