<svg width="24" height="24" viewBox="0 0 24 24" fill="none" xmlns="http://www.w3.org/2000/svg">
<path d="M21.1429 0.000976562H2.85714C1.28 0.000976562 0 1.28098 0 2.85812V21.1438C0 22.721 1.28 24.001 2.85714 24.001H21.1429C22.72 24.001 24 22.721 24 21.1438V2.85812C24 1.28098 22.72 0.000976562 21.1429 0.000976562ZM18.8571 8.57241H17.7143C16.4914 8.57241 16 8.85812 16 9.71526V11.4295H18.8571L18.2857 14.2867H16V22.8581H13.1429V14.2867H10.8571V11.4295H13.1429V9.71526C13.1429 7.42955 14.2857 5.71526 16.5714 5.71526C18.2286 5.71526 18.8571 6.28669 18.8571 6.28669V8.57241Z" fill="#344756"/>
</svg>
