<svg width="24" height="24" viewBox="0 0 24 24" fill="none" xmlns="http://www.w3.org/2000/svg">
<path d="M21.1429 0.000976562H2.85714C1.28171 0.000976562 0 1.28269 0 2.85812V21.1438C0 22.7193 1.28171 24.001 2.85714 24.001H21.1429C22.7183 24.001 24 22.7193 24 21.1438V2.85812C24 1.28269 22.7183 0.000976562 21.1429 0.000976562ZM18.8606 10.4713C18.7309 10.4833 18.5994 10.4913 18.4663 10.4913C16.9674 10.4913 15.6503 9.72041 14.884 8.55526C14.884 11.6118 14.884 15.0895 14.884 15.1478C14.884 17.8387 12.7023 20.0204 10.0114 20.0204C7.32057 20.0204 5.13886 17.8387 5.13886 15.1478C5.13886 12.457 7.32057 10.2753 10.0114 10.2753C10.1131 10.2753 10.2126 10.2844 10.3126 10.2907V12.6918C10.2126 12.6798 10.1143 12.6615 10.0114 12.6615C8.63772 12.6615 7.52457 13.7747 7.52457 15.1484C7.52457 16.5221 8.63772 17.6353 10.0114 17.6353C11.3851 17.6353 12.5983 16.553 12.5983 15.1793C12.5983 15.125 12.6223 3.98269 12.6223 3.98269H14.9171C15.1331 6.03469 16.7897 7.65412 18.8606 7.80269V10.4713Z" fill="#344756"/>
</svg>
