<svg width="24" height="24" viewBox="0 0 24 24" fill="none" xmlns="http://www.w3.org/2000/svg">
<path d="M21.1429 0.000976562H2.85714C1.28 0.000976562 0 1.28098 0 2.85812V21.1438C0 22.721 1.28 24.001 2.85714 24.001H21.1429C22.72 24.001 24 22.721 24 21.1438V2.85812C24 1.28098 22.72 0.000976562 21.1429 0.000976562ZM7.42857 9.14383V20.001H4V9.14383H7.42857ZM4 5.98383C4 5.18383 4.68571 4.57241 5.71429 4.57241C6.74286 4.57241 7.38857 5.18383 7.42857 5.98383C7.42857 6.78383 6.78857 7.42955 5.71429 7.42955C4.68571 7.42955 4 6.78383 4 5.98383ZM20 20.001H16.5714C16.5714 20.001 16.5714 14.7095 16.5714 14.2867C16.5714 13.1438 16 12.001 14.5714 11.9781H14.5257C13.1429 11.9781 12.5714 13.1553 12.5714 14.2867C12.5714 14.8067 12.5714 20.001 12.5714 20.001H9.14286V9.14383H12.5714V10.6067C12.5714 10.6067 13.6743 9.14383 15.8914 9.14383C18.16 9.14383 20 10.7038 20 13.8638V20.001Z" fill="#344756"/>
</svg>
