<svg width="24" height="24" viewBox="0 0 24 24" fill="none" xmlns="http://www.w3.org/2000/svg">
<path d="M9.50041 2.328C7.47291 2.851 5.69441 3.986 4.37891 5.5345L9.50041 8.6655V2.328Z" fill="#3F51B5"/>
<path d="M4.30273 18.382C5.62473 19.9745 7.43523 21.1395 9.50023 21.6725V15.205L4.30273 18.382Z" fill="#3F51B5"/>
<path d="M2.32812 14.5C2.33463 14.526 2.34112 14.5515 2.34812 14.5775L2.47412 14.5H2.32812Z" fill="white"/>
<path d="M19.788 5.7345C18.458 4.084 16.614 2.873 14.5 2.328V8.9665L19.788 5.7345Z" fill="#3F51B5"/>
<path d="M14.5 21.672C16.6515 21.117 18.5205 19.8705 19.8555 18.175L14.5 14.902V21.672Z" fill="#3F51B5"/>
<path d="M2.37662 9.31055C2.35912 9.37305 2.34413 9.43705 2.32812 9.50005H2.68663L2.37662 9.31055Z" fill="white"/>
<path d="M21.8764 10.5C21.8289 10.185 21.7674 9.87554 21.6914 9.57104L20.1719 10.5H21.8764Z" fill="white"/>
<path d="M2.687 9.5H2.3285C2.244 9.8275 2.1765 10.1605 2.125 10.5H4.323L2.687 9.5Z" fill="white"/>
<path d="M21.7197 14.3145C21.7832 14.047 21.8337 13.775 21.8752 13.5H20.3867L21.7197 14.3145Z" fill="white"/>
<path d="M4.1105 13.5H2.125C2.176 13.8395 2.244 14.1725 2.3285 14.5H2.475L4.1105 13.5Z" fill="white"/>
<path d="M10.5 9.27651V2.12451C10.1605 2.17551 9.8275 2.24351 9.5 2.32801V8.66551L10.5 9.27651Z" fill="white"/>
<path d="M13.5 14.291V21.8755C13.8395 21.8245 14.1725 21.7565 14.5 21.672V14.902L13.5 14.291Z" fill="white"/>
<path d="M9.5 15.205V21.672C9.8275 21.7565 10.1605 21.824 10.5 21.8755V14.594L9.5 15.205Z" fill="white"/>
<path d="M13.5925 9.34701L13.7345 9.43401L14.5 8.96601V2.32801C14.1725 2.24351 13.8395 2.17601 13.5 2.12451V9.49851L13.5925 9.34701Z" fill="white"/>
<path d="M4.32345 10.5H9.01845L10.501 9.59405V9.27705L9.50095 8.66555L4.37945 5.53455C3.95245 6.03755 3.57295 6.58155 3.25045 7.16305L7.02595 9.50005H4.29795L2.65145 8.47655C2.54845 8.74955 2.45645 9.02705 2.37695 9.31055L2.68745 9.50005L4.32345 10.5Z" fill="white"/>
<path d="M13.7344 9.434L15.4784 10.5H20.1709L21.6904 9.571C21.5279 8.921 21.3029 8.2975 21.0199 7.705L18.1389 9.5H15.4109L20.3169 6.45C20.1514 6.203 19.9734 5.9655 19.7874 5.7345L14.4999 8.966L13.7344 9.434Z" fill="white"/>
<path d="M7.02439 9.49996L3.24939 7.16296C3.01689 7.58246 2.82139 8.02296 2.65039 8.47646L4.29639 9.49996H7.02439Z" fill="#E53935"/>
<path d="M18.1382 9.49994L21.0197 7.70494C20.8122 7.26994 20.5827 6.84794 20.3167 6.45044L15.4102 9.49994H18.1382Z" fill="#E53935"/>
<path d="M13.5 13.5V14.291L14.5 14.902L19.8555 18.1755C20.2415 17.685 20.5835 17.159 20.8735 16.6005L17.4855 14.5H20.2135L21.443 15.267C21.5505 14.956 21.643 14.639 21.7195 14.315L20.387 13.5H13.5Z" fill="white"/>
<path d="M15.4785 10.5L13.7345 9.43405L13.5925 9.34705L13.5 9.49855V10.5H15.4785Z" fill="white"/>
<path d="M10.5002 14.594V13.5H4.11016L2.47416 14.5L2.34766 14.5775C2.52366 15.238 2.76366 15.871 3.06416 16.4705L6.16466 14.5H8.89266L3.80166 17.7165C3.96066 17.9445 4.12566 18.1685 4.30266 18.382L9.50016 15.205L10.5002 14.594Z" fill="white"/>
<path d="M9.01758 10.5H10.5001V9.59399L9.01758 10.5Z" fill="white"/>
<path d="M17.4863 14.5L20.8738 16.6C21.0958 16.173 21.2843 15.727 21.4438 15.2665L20.2143 14.5H17.4863Z" fill="#E53935"/>
<path d="M6.16495 14.5L3.06445 16.4705C3.28195 16.9045 3.52595 17.3215 3.80195 17.7165L8.89295 14.5H6.16495Z" fill="#E53935"/>
<path d="M15.4785 10.5H13.5V13.5H20.387H21.8755C21.9495 13.0095 22 12.511 22 12C22 11.489 21.9495 10.9905 21.8755 10.5H20.171H15.4785Z" fill="#E53935"/>
<path d="M10.5 13.5V10.5H9.0175H4.3225H2.1245C2.0505 10.9905 2 11.489 2 12C2 12.511 2.0505 13.0095 2.1245 13.5H4.11H10.5Z" fill="#E53935"/>
<path d="M13.5 21.8755V14.291V13.5V10.5V9.4985V2.1245C13.0095 2.0505 12.511 2 12 2C11.489 2 10.9905 2.0505 10.5 2.1245V9.2765V9.5935V10.5V13.5V14.594V21.8755C10.9905 21.9495 11.489 22 12 22C12.511 22 13.0095 21.9495 13.5 21.8755Z" fill="#E53935"/>
</svg>
