<svg width="24" height="24" viewBox="0 0 24 24" fill="none" xmlns="http://www.w3.org/2000/svg">
<path d="M16 2.8375C14.7745 2.302 13.423 2 12 2C10.577 2 9.2255 2.302 8 2.8375V21.162C9.2255 21.698 10.577 22 12 22C13.423 22 14.7745 21.698 16 21.1625V2.8375Z" fill="#ECEFF1"/>
<path d="M22 12C22 7.90052 19.5305 4.38152 16 2.83752V21.162C19.5305 19.6185 22 16.0995 22 12Z" fill="#FF3D00"/>
<path d="M2 12C2 16.0995 4.4695 19.6185 8 21.1625V2.83752C4.4695 4.38152 2 7.90052 2 12Z" fill="#3F51B5"/>
</svg>
