<svg width="24" height="24" viewBox="0 0 24 24" fill="none" xmlns="http://www.w3.org/2000/svg">
<path d="M12.0006 2C7.71108 2 4.06308 4.706 2.64258 8.5H21.3581C19.9381 4.706 16.2901 2 12.0006 2Z" fill="#455A64"/>
<path d="M22 12C22 10.7665 21.766 9.591 21.358 8.5H2.642C2.234 9.591 2 10.7665 2 12C2 13.2335 2.234 14.409 2.642 15.5H21.3575C21.766 14.409 22 13.2335 22 12Z" fill="#FF3D00"/>
<path d="M21.3586 15.5H2.64258C4.06308 19.294 7.71108 22 12.0006 22C16.2901 22 19.9381 19.294 21.3586 15.5Z" fill="#FFC107"/>
</svg>
