<svg width="25" height="24" viewBox="0 0 25 24" fill="none" xmlns="http://www.w3.org/2000/svg">
<g clip-path="url(#clip0_537_79)">
<path fill-rule="evenodd" clip-rule="evenodd" d="M12.3047 1.5C10.3156 1.5 8.40791 2.29018 7.00139 3.6967C5.59486 5.10322 4.80469 7.01088 4.80469 9V15.75H3.30469V9C3.30469 7.8181 3.53748 6.64778 3.98977 5.55585C4.44206 4.46392 5.105 3.47177 5.94073 2.63604C6.77645 1.80031 7.76861 1.13738 8.86054 0.685084C9.95247 0.232792 11.1228 0 12.3047 0C13.4866 0 14.6569 0.232792 15.7488 0.685084C16.8408 1.13738 17.8329 1.80031 18.6686 2.63604C19.5044 3.47177 20.1673 4.46392 20.6196 5.55585C21.0719 6.64778 21.3047 7.8181 21.3047 9V15.75H19.8047V9C19.8047 8.01509 19.6107 7.03982 19.2338 6.12987C18.8569 5.21993 18.3044 4.39314 17.608 3.6967C16.9115 3.00026 16.0848 2.44781 15.1748 2.0709C14.2649 1.69399 13.2896 1.5 12.3047 1.5Z" fill="#344756"/>
<path d="M16.8047 12C16.8047 11.6022 16.9627 11.2206 17.244 10.9393C17.5253 10.658 17.9069 10.5 18.3047 10.5H21.3047V16.5C21.3047 16.8978 21.1467 17.2794 20.8653 17.5607C20.584 17.842 20.2025 18 19.8047 18H18.3047C17.9069 18 17.5253 17.842 17.244 17.5607C16.9627 17.2794 16.8047 16.8978 16.8047 16.5V12ZM7.80469 12C7.80469 11.6022 7.64665 11.2206 7.36535 10.9393C7.08404 10.658 6.70251 10.5 6.30469 10.5H3.30469V16.5C3.30469 16.8978 3.46272 17.2794 3.74403 17.5607C4.02533 17.842 4.40686 18 4.80469 18H6.30469C6.70251 18 7.08404 17.842 7.36535 17.5607C7.64665 17.2794 7.80469 16.8978 7.80469 16.5V12Z" fill="#344756"/>
<path fill-rule="evenodd" clip-rule="evenodd" d="M20.5547 12.75C20.7536 12.75 20.9444 12.829 21.085 12.9697C21.2257 13.1103 21.3047 13.3011 21.3047 13.5V18C21.3047 18.9946 20.9096 19.9484 20.2063 20.6517C19.5031 21.3549 18.5492 21.75 17.5547 21.75H12.3047C12.1058 21.75 11.915 21.671 11.7744 21.5303C11.6337 21.3897 11.5547 21.1989 11.5547 21C11.5547 20.8011 11.6337 20.6103 11.7744 20.4697C11.915 20.329 12.1058 20.25 12.3047 20.25H17.5547C18.1514 20.25 18.7237 20.0129 19.1457 19.591C19.5676 19.169 19.8047 18.5967 19.8047 18V13.5C19.8047 13.3011 19.8837 13.1103 20.0244 12.9697C20.165 12.829 20.3558 12.75 20.5547 12.75Z" fill="#344756"/>
<path d="M10.0547 21C10.0547 20.6022 10.2127 20.2206 10.494 19.9393C10.7753 19.658 11.1569 19.5 11.5547 19.5H13.0547C13.4525 19.5 13.834 19.658 14.1153 19.9393C14.3967 20.2206 14.5547 20.6022 14.5547 21C14.5547 21.3978 14.3967 21.7794 14.1153 22.0607C13.834 22.342 13.4525 22.5 13.0547 22.5H11.5547C11.1569 22.5 10.7753 22.342 10.494 22.0607C10.2127 21.7794 10.0547 21.3978 10.0547 21Z" fill="#344756"/>
</g>
<defs>
<clipPath id="clip0_537_79">
<rect width="24" height="24" fill="white" transform="translate(0.304688)"/>
</clipPath>
</defs>
</svg>
