<svg width="24" height="24" viewBox="0 0 24 24" fill="none" xmlns="http://www.w3.org/2000/svg">
<path fill-rule="evenodd" clip-rule="evenodd" d="M7.5 1.50098H1.5V13.501H7.5V1.50098ZM1.5 0.000976563C1.10218 0.000976563 0.720644 0.159012 0.43934 0.440316C0.158035 0.721621 0 1.10315 0 1.50098L0 13.501C0 13.8988 0.158035 14.2803 0.43934 14.5616C0.720644 14.8429 1.10218 15.001 1.5 15.001H7.5C7.89782 15.001 8.27936 14.8429 8.56066 14.5616C8.84196 14.2803 9 13.8988 9 13.501V1.50098C9 1.10315 8.84196 0.721621 8.56066 0.440316C8.27936 0.159012 7.89782 0.000976563 7.5 0.000976562L1.5 0.000976563ZM21 3.00098H13.5V10.501H21V3.00098ZM13.5 1.50098C13.1022 1.50098 12.7206 1.65901 12.4393 1.94032C12.158 2.22162 12 2.60315 12 3.00098V10.501C12 10.8988 12.158 11.2803 12.4393 11.5616C12.7206 11.8429 13.1022 12.001 13.5 12.001H21C21.3978 12.001 21.7794 11.8429 22.0607 11.5616C22.342 11.2803 22.5 10.8988 22.5 10.501V3.00098C22.5 2.60315 22.342 2.22162 22.0607 1.94032C21.7794 1.65901 21.3978 1.50098 21 1.50098H13.5ZM7.5 19.501H4.5V22.501H7.5V19.501ZM4.5 18.001C4.10218 18.001 3.72064 18.159 3.43934 18.4403C3.15804 18.7216 3 19.1032 3 19.501V22.501C3 22.8988 3.15804 23.2803 3.43934 23.5616C3.72064 23.8429 4.10218 24.001 4.5 24.001H7.5C7.89782 24.001 8.27936 23.8429 8.56066 23.5616C8.84196 23.2803 9 22.8988 9 22.501V19.501C9 19.1032 8.84196 18.7216 8.56066 18.4403C8.27936 18.159 7.89782 18.001 7.5 18.001H4.5ZM22.5 16.501H13.5V19.501H22.5V16.501ZM13.5 15.001C13.1022 15.001 12.7206 15.159 12.4393 15.4403C12.158 15.7216 12 16.1032 12 16.501V19.501C12 19.8988 12.158 20.2803 12.4393 20.5616C12.7206 20.8429 13.1022 21.001 13.5 21.001H22.5C22.8978 21.001 23.2794 20.8429 23.5607 20.5616C23.842 20.2803 24 19.8988 24 19.501V16.501C24 16.1032 23.842 15.7216 23.5607 15.4403C23.2794 15.159 22.8978 15.001 22.5 15.001H13.5Z" fill="#344756"/>
</svg>
