<svg width="16" height="24" viewBox="0 0 16 24" fill="none" xmlns="http://www.w3.org/2000/svg">
<path d="M0 13.1613C0 12.34 0.293167 11.5524 0.815007 10.9716C1.33685 10.3908 2.04462 10.0646 2.78261 10.0646H12.5217C13.2597 10.0646 13.9675 10.3908 14.4893 10.9716C15.0112 11.5524 15.3043 12.34 15.3043 13.1613V20.9033C15.3043 21.7246 15.0112 22.5123 14.4893 23.093C13.9675 23.6738 13.2597 24.0001 12.5217 24.0001H2.78261C2.04462 24.0001 1.33685 23.6738 0.815007 23.093C0.293167 22.5123 0 21.7246 0 20.9033V13.1613Z" fill="#344756"/>
<path fill-rule="evenodd" clip-rule="evenodd" d="M2.7832 5.41936C2.7832 3.98205 3.29625 2.60362 4.20947 1.58729C5.12269 0.570966 6.36128 0 7.65277 0C8.94426 0 10.1829 0.570966 11.0961 1.58729C12.0093 2.60362 12.5223 3.98205 12.5223 5.41936V10.0645H11.131V5.41936C11.131 4.39271 10.7646 3.40811 10.1123 2.68217C9.45997 1.95622 8.57526 1.54839 7.65277 1.54839C6.73028 1.54839 5.84557 1.95622 5.19327 2.68217C4.54097 3.40811 4.17451 4.39271 4.17451 5.41936V10.0645H2.7832V5.41936Z" fill="#344756"/>
</svg>
