<svg width="24" height="21" viewBox="0 0 24 21" fill="none" xmlns="http://www.w3.org/2000/svg">
<path fill-rule="evenodd" clip-rule="evenodd" d="M0 19.95C0 19.6715 0.105357 19.4044 0.292893 19.2075C0.48043 19.0106 0.734784 18.9 1 18.9H15C15.2652 18.9 15.5196 19.0106 15.7071 19.2075C15.8946 19.4044 16 19.6715 16 19.95C16 20.2285 15.8946 20.4955 15.7071 20.6925C15.5196 20.8894 15.2652 21 15 21H1C0.734784 21 0.48043 20.8894 0.292893 20.6925C0.105357 20.4955 0 20.2285 0 19.95ZM0 13.65C0 13.3715 0.105357 13.1044 0.292893 12.9075C0.48043 12.7106 0.734784 12.6 1 12.6H23C23.2652 12.6 23.5196 12.7106 23.7071 12.9075C23.8946 13.1044 24 13.3715 24 13.65C24 13.9285 23.8946 14.1955 23.7071 14.3925C23.5196 14.5894 23.2652 14.7 23 14.7H1C0.734784 14.7 0.48043 14.5894 0.292893 14.3925C0.105357 14.1955 0 13.9285 0 13.65ZM0 7.35C0 7.07152 0.105357 6.80445 0.292893 6.60754C0.48043 6.41062 0.734784 6.3 1 6.3H23C23.2652 6.3 23.5196 6.41062 23.7071 6.60754C23.8946 6.80445 24 7.07152 24 7.35C24 7.62848 23.8946 7.89555 23.7071 8.09246C23.5196 8.28937 23.2652 8.4 23 8.4H1C0.734784 8.4 0.48043 8.28937 0.292893 8.09246C0.105357 7.89555 0 7.62848 0 7.35ZM0 1.05C0 0.771523 0.105357 0.504451 0.292893 0.307538C0.48043 0.110625 0.734784 0 1 0H23C23.2652 0 23.5196 0.110625 23.7071 0.307538C23.8946 0.504451 24 0.771523 24 1.05C24 1.32848 23.8946 1.59555 23.7071 1.79246C23.5196 1.98937 23.2652 2.1 23 2.1H1C0.734784 2.1 0.48043 1.98937 0.292893 1.79246C0.105357 1.59555 0 1.32848 0 1.05Z" fill="black"/>
</svg>
