<svg width="24" height="24" viewBox="0 0 24 24" fill="none" xmlns="http://www.w3.org/2000/svg">
<path fill-rule="evenodd" clip-rule="evenodd" d="M2.82775 0.766702C3.09013 0.5043 3.4053 0.300687 3.75235 0.16937C4.09941 0.0380534 4.47043 -0.017965 4.84078 0.00503103C5.21114 0.0280271 5.57238 0.129512 5.90052 0.302753C6.22867 0.475994 6.51623 0.717032 6.74413 1.00988L9.43344 4.4687C9.92778 5.10223 10.1022 5.92934 9.90698 6.70845L9.08627 9.9929C9.04359 10.1633 9.04577 10.3419 9.09259 10.5112C9.13941 10.6806 9.22928 10.8349 9.35345 10.9592L13.0394 14.6436C13.1637 14.7678 13.3181 14.8576 13.4874 14.9044C13.6567 14.9513 13.8353 14.9534 14.0057 14.9108L17.2886 14.0901C17.6736 13.9939 18.0755 13.9865 18.4638 14.0686C18.8521 14.1506 19.2167 14.3199 19.5299 14.5636L22.9888 17.2529C24.2318 18.2192 24.347 20.0574 23.2335 21.1693L21.6817 22.7211C20.573 23.8298 18.914 24.3177 17.367 23.7738C13.4097 22.3809 9.81668 20.115 6.85452 17.1441C3.88306 14.1821 1.6166 10.5891 0.223238 6.63166C-0.320703 5.08463 0.167244 3.42561 1.27592 2.31533L2.82775 0.765102V0.766702Z" fill="#344756"/>
</svg>
