<svg width="1034" height="76" viewBox="0 0 1034 76" fill="none" xmlns="http://www.w3.org/2000/svg">
<path d="M23.7039 15.9702C11.6785 15.9702 1.89648 25.7532 1.89648 37.7776C1.89648 49.802 11.6785 59.585 23.7039 59.585C35.7292 59.585 45.5113 49.802 45.5113 37.7776C45.5113 25.7532 35.7292 15.9702 23.7039 15.9702ZM23.7039 20.711C27.743 20.711 31.4465 22.119 34.3677 24.4609C33.4613 25.0639 32.9009 26.1107 32.9009 27.2532C32.9009 28.7702 33.7543 30.0976 34.7024 31.6147C35.4609 32.8472 36.2194 34.4591 36.2194 36.7347C36.2194 38.3465 35.7454 40.3376 34.7972 42.8028L32.9009 49.0606L26.1691 28.9598C27.3068 28.865 28.3498 28.7702 28.3498 28.7702C29.298 28.6754 29.2031 27.2532 28.255 27.2532C28.255 27.2532 28.255 27.2532 28.1602 27.2532C28.1602 27.2532 25.1261 27.5376 23.135 27.5376C21.3335 27.5376 18.2046 27.2532 18.2046 27.2532C18.2046 27.2532 18.2046 27.2532 18.1098 27.2532C17.1617 27.2532 17.0669 28.7702 18.015 28.7702C18.015 28.7702 18.9631 28.865 20.0061 28.9598L22.9454 36.9243L18.8683 49.1554L12.0417 28.865C13.1794 28.7702 14.2224 28.6754 14.2224 28.6754C15.1706 28.5806 15.0757 27.1584 14.1276 27.1584C14.1276 27.1584 14.1276 27.1584 14.0328 27.1584C14.0328 27.1584 11.9924 27.3499 10.1596 27.4182C13.2771 23.3468 18.1743 20.711 23.7039 20.711ZM6.63722 37.7776C6.63722 36.071 6.89417 34.4259 7.35971 32.8719L14.3988 52.0776C9.72913 49.0331 6.63722 43.7728 6.63722 37.7776ZM18.6578 54.0858L23.7039 39.2947L29.0941 53.9635C27.3988 54.5267 25.5898 54.8443 23.7039 54.8443C21.947 54.8443 20.2526 54.5779 18.6578 54.0858ZM33.4736 51.7628L38.495 37.2087C39.2402 35.3124 39.6423 33.6608 39.8129 32.1798C40.4226 33.9348 40.7706 35.8131 40.7706 37.7776C40.7706 43.5717 37.8825 48.6785 33.4736 51.7628Z" fill="#344756" fill-opacity="0.4"/>
<path fill-rule="evenodd" clip-rule="evenodd" d="M194.639 19.7629L191.795 52L178.521 55.7926L165.247 52L162.402 19.7629H194.639ZM170.747 40.6222H174.539L174.632 42.9926L178.521 44.3185L182.41 42.9926L182.691 38.7259H174.35L174.158 34.9333H182.884L183.165 31.1407H170.084L169.799 27.3481H187.15L186.676 34.9333L186.01 45.837L178.521 48.3037L171.032 45.837L170.747 40.6222Z" fill="#344756" fill-opacity="0.4"/>
<g clip-path="url(#clip0_871_41)">
<path d="M325.611 14.0851C325.489 14.1034 325.368 14.1446 325.257 14.2129C324.81 14.4859 324.669 15.07 324.942 15.5166L326.498 18.0592C323.701 19.9373 321.711 22.925 321.172 26.3999H345.502C344.964 22.925 342.973 19.9373 340.176 18.0592L341.731 15.5166C342.004 15.07 341.864 14.4859 341.417 14.2129C340.969 13.9398 340.386 14.0811 340.113 14.5277L338.526 17.1221C336.949 16.3866 335.193 15.9703 333.337 15.9703C331.481 15.9703 329.725 16.3866 328.148 17.1221L326.561 14.5277C326.355 14.1928 325.976 14.0303 325.611 14.0851ZM317.218 18.8147C315.127 18.8147 313.426 20.5157 313.426 22.6073C313.426 24.6989 315.127 26.3999 317.218 26.3999H319.255C319.644 23.5043 320.905 20.8883 322.767 18.8147H317.218ZM328.122 20.711C328.907 20.711 329.544 21.3482 329.544 22.1332C329.544 22.9183 328.907 23.5555 328.122 23.5555C327.337 23.5555 326.7 22.9183 326.7 22.1332C326.7 21.3482 327.337 20.711 328.122 20.711ZM338.552 20.711C339.337 20.711 339.974 21.3482 339.974 22.1332C339.974 22.9183 339.337 23.5555 338.552 23.5555C337.767 23.5555 337.129 22.9183 337.129 22.1332C337.129 21.3482 337.767 20.711 338.552 20.711ZM313.426 26.8369V51.0517C313.426 53.6658 315.552 55.7925 318.167 55.7925H322.224L321.817 56.6573C321.068 58.2473 321.63 60.1659 323.096 61.024C323.607 61.3226 324.188 61.4814 324.776 61.4814C326.074 61.4814 327.266 60.7291 327.815 59.5629L329.579 55.7925H337.094L338.855 59.5573C339.407 60.7283 340.6 61.4814 341.898 61.4814C342.486 61.4814 343.067 61.3226 343.578 61.024C345.043 60.1659 345.606 58.2473 344.857 56.6573L344.45 55.7925H346.611V36.8295C346.611 36.3062 347.035 35.8814 347.559 35.8814H351.352C353.443 35.8814 355.144 34.1804 355.144 32.0888C355.144 29.9972 353.443 28.2962 351.352 28.2962H347.559H321.011H317.218C315.76 28.2962 314.434 27.7415 313.426 26.8369ZM333.337 33.0369C333.861 33.0369 334.285 33.4617 334.285 33.9851V36.0166C335.917 36.4404 337.129 37.9123 337.129 39.674C337.129 40.715 336.708 41.6588 336.026 42.3443L343.142 57.4647C343.464 58.1474 343.27 59.0086 342.62 59.3888C342.391 59.5234 342.142 59.5851 341.898 59.5851C341.364 59.5851 340.817 59.2684 340.574 58.7536L339.189 55.7925L335.357 47.6036C334.555 45.8893 332.119 45.8893 331.317 47.6036L327.485 55.7925L326.1 58.7536C325.857 59.2684 325.31 59.5851 324.776 59.5851C324.532 59.5851 324.283 59.5234 324.054 59.3888C323.403 59.0086 323.211 58.1483 323.531 57.4666L330.646 42.3443C329.965 41.6579 329.544 40.715 329.544 39.674C329.544 37.9123 330.757 36.4404 332.389 36.0166V33.9851C332.389 33.4617 332.813 33.0369 333.337 33.0369ZM355.144 36.3184C354.136 37.223 352.81 37.7777 351.352 37.7777H348.507V56.7406V60.5332C348.507 61.0566 348.931 61.4814 349.455 61.4814H350.404C353.018 61.4814 355.144 59.3547 355.144 56.7406V36.3184ZM333.337 37.7777C332.834 37.7777 332.352 37.9775 331.996 38.3331C331.64 38.6887 331.441 39.171 331.441 39.674C331.441 40.1769 331.64 40.6592 331.996 41.0149C332.352 41.3705 332.834 41.5703 333.337 41.5703C333.84 41.5703 334.322 41.3705 334.678 41.0149C335.033 40.6592 335.233 40.1769 335.233 39.674C335.233 39.171 335.033 38.6887 334.678 38.3331C334.322 37.9775 333.84 37.7777 333.337 37.7777Z" fill="#344756" fill-opacity="0.4"/>
</g>
<path d="M489.771 17.1963L469.86 37.1074C469.489 37.4781 469.489 38.0783 469.86 38.4481L475.156 43.7444C475.527 44.1152 476.127 44.1152 476.497 43.7444L501.705 18.5369C502.302 17.9396 501.879 16.9185 501.034 16.9185H490.442C490.19 16.9185 489.949 17.018 489.771 17.1963ZM501.705 37.4999L485.308 53.8963L479.342 47.9296C478.971 47.5588 478.971 46.9587 479.342 46.5889L489.771 36.1592C489.949 35.981 490.19 35.8814 490.442 35.8814H501.034C501.879 35.8814 502.302 36.9026 501.705 37.4999ZM501.705 57.0185L494.79 50.1037L485.308 53.8963L489.771 58.3592C489.949 58.5374 490.19 58.637 490.442 58.637H501.034C501.879 58.637 502.302 57.6158 501.705 57.0185Z" fill="#344756" fill-opacity="0.4"/>
<g clip-path="url(#clip1_871_41)">
<path d="M550.992 24.1631V30.5558C550.375 30.3971 549.635 30.3433 548.964 30.3433C544.644 30.3433 541.857 33.0522 541.857 37.2259C541.857 41.5598 544.484 43.8133 549.534 43.8193C551.22 43.8193 552.783 43.6649 554.9 43.2645V24.1631H550.992ZM557.34 24.1837V28.3836H561.475V24.1837H557.34ZM557.34 30.2223V38.7075C557.34 42.2707 557.155 43.6267 556.564 44.7963C556.001 45.9402 555.117 46.6874 553.291 47.5351L557.128 49.3443C558.953 48.4362 559.836 47.6158 560.507 46.3133C561.225 44.9593 561.469 43.3883 561.469 40.1213V30.2223H557.34ZM610.713 30.2223C606.469 30.2223 603.821 32.8847 603.813 37.1551C603.813 41.2683 606.379 43.8223 610.545 43.8223C614.764 43.8223 617.413 41.1637 617.413 36.919C617.413 32.7785 614.873 30.2223 610.713 30.2223ZM569.184 30.3433C567.356 30.3433 565.682 30.7175 563.931 31.5622L563.937 34.7173C565.484 33.8967 567.131 33.4718 568.597 33.4718C569.597 33.4718 569.961 33.7407 569.961 34.4811V35.3784C565.095 35.7985 563.113 37.1234 563.113 39.9855C563.113 42.6314 564.606 43.8223 567.93 43.8223C569.574 43.8223 571.815 43.6337 573.591 43.3707V35.0862C573.591 33.3907 573.483 32.5962 573.151 31.9872C572.559 30.8992 571.221 30.3433 569.184 30.3433ZM582.533 30.3433C580.496 30.3433 578.485 30.6323 576.043 31.27V43.657H580.172V33.9292C581.003 33.6875 581.511 33.637 582.076 33.637C583.549 33.637 584.239 34.2215 584.239 35.7916V43.657H588.224V35.6292C588.224 33.5847 587.95 32.626 587.093 31.7511C586.184 30.8233 584.651 30.3433 582.533 30.3433ZM598.955 30.3669C592.921 30.3669 589.511 32.9938 589.511 37.648C589.511 41.3955 591.813 43.7633 595.437 43.7633C596.507 43.7633 597.316 43.6014 598.12 43.2055V43.2822C598.12 45.8858 596.964 46.9773 594.256 46.9773C592.723 46.9773 591.275 46.6347 589.829 45.8912H589.826V49.6719C591.274 50.2311 592.668 50.4688 594.28 50.4688C597.447 50.4688 599.677 49.4825 600.965 47.4909C601.847 46.1324 602.145 44.4845 602.145 40.9742V39.8586C602.118 39.2995 602.12 38.7413 602.092 38.1822L602.066 35.948L602.013 34.2185V33.7905C602.842 33.8691 601.833 33.6911 602.933 33.9027L604.35 30.9513C602.366 30.5508 600.728 30.3669 598.955 30.3669ZM610.654 33.4836C612.25 33.4836 613.166 34.7996 613.166 37.0164C613.166 39.2589 612.225 40.5522 610.628 40.5522C609.009 40.5522 608.057 39.2589 608.057 37.0164C608.057 34.7739 609.003 33.4836 610.654 33.4836ZM549.369 33.637C549.879 33.637 550.506 33.6915 550.989 33.8495V40.4193C550.398 40.4979 549.8 40.5256 549.342 40.5256C547.225 40.5256 546.069 39.3223 546.069 37.1463C546.069 34.9113 547.277 33.637 549.369 33.637ZM597.609 33.6636H597.907H598.04V33.9794L598.067 35.3341L598.093 37.223C598.093 37.7806 598.12 38.3141 598.12 38.7931V39.9088V40.2068C597.588 40.3655 597.131 40.4695 596.567 40.4695C594.742 40.4695 593.719 39.297 593.719 37.2525C593.719 35.8185 594.229 34.8071 595.219 34.248C595.862 33.8475 596.805 33.6379 597.609 33.6636ZM570.141 38.0464V40.7765C569.37 40.9079 568.826 40.9624 568.234 40.9624C567.151 40.9624 566.661 40.5899 566.661 39.7966C566.661 38.7373 567.516 38.3094 570.141 38.0464Z" fill="#344756" fill-opacity="0.4"/>
</g>
<path d="M690.338 16.2776C690.16 16.0813 689.905 15.9702 689.638 15.9702H652.593C652.327 15.9702 652.071 16.0813 651.893 16.2776C651.712 16.4739 651.623 16.7369 651.649 17.0035L654.986 54.385C655.019 54.7776 655.293 55.1035 655.671 55.2147L670.853 59.548C670.934 59.5739 671.023 59.585 671.112 59.585C671.201 59.585 671.286 59.5739 671.371 59.548L686.564 55.2147C686.942 55.1035 687.212 54.7776 687.249 54.385L690.582 17.0035C690.608 16.7369 690.519 16.4739 690.338 16.2776ZM682.349 29.1665H664.512L664.938 33.9924H681.919L680.645 48.2554L671.108 51.1369L671.016 51.1072L661.59 48.2517L661.075 42.4406H665.693L665.893 44.6961L671.164 45.7998L676.338 44.6961L676.89 38.5924H660.73L659.475 24.5554H682.76L682.349 29.1665Z" fill="#344756" fill-opacity="0.4"/>
<path d="M767.747 16.2784C767.567 16.0821 767.313 15.9702 767.047 15.9702H730.001C729.734 15.9702 729.481 16.0821 729.301 16.2784C729.121 16.4746 729.033 16.7382 729.057 17.0027L732.394 54.3854C732.429 54.776 732.701 55.105 733.079 55.2131L748.258 59.549C748.343 59.5727 748.431 59.585 748.518 59.585C748.605 59.585 748.694 59.5727 748.778 59.549L763.971 55.2131C764.349 55.105 764.621 54.776 764.656 54.3854L767.991 17.0027C768.015 16.7382 767.926 16.4746 767.747 16.2784ZM736.198 41.574L742.835 43.4153V24.5035H746.628V49.1554L736.198 46.2626V41.574ZM760.901 34.9332L759.902 46.548L750.42 49.1554V44.793L756.82 43.0342L757.057 39.4786L750.42 40.6221V24.5035H761.798L761.471 28.2961H754.213V35.8813L760.901 34.9332Z" fill="#344756" fill-opacity="0.4"/>
<path d="M825.458 15.9702C817.21 15.9702 815.503 20.2295 815.503 22.6961V27.348H824.984V28.2961H810.851C807.721 28.2961 804.125 30.7628 804.125 37.7776C804.125 44.7924 807.721 47.2591 810.851 47.2591H816.451V41.5702C816.451 39.485 818.158 37.7776 820.244 37.7776H831.621C833.232 37.7776 834.466 36.5443 834.466 34.9332V22.6961C834.466 19.3776 831.336 15.9702 825.458 15.9702ZM821.192 20.711C822.236 20.711 823.088 21.5628 823.088 22.6073C823.088 23.6517 822.236 24.5035 821.192 24.5035C820.147 24.5035 819.295 23.6517 819.295 22.6073C819.295 21.5628 820.147 20.711 821.192 20.711ZM835.414 28.2961V34.9332C835.414 37.0184 833.706 38.7258 831.621 38.7258H820.244C818.632 38.7258 817.399 39.9591 817.399 41.5702V52.8591C817.399 56.1776 820.529 59.585 826.406 59.585C834.655 59.585 836.362 55.3258 836.362 52.8591V48.2072H826.881V47.2591H841.014C844.144 47.2591 847.74 44.7924 847.74 37.7776C847.74 30.7628 844.144 28.2961 841.014 28.2961H835.414ZM830.673 51.0517C831.718 51.0517 832.569 51.9035 832.569 52.948C832.569 53.9924 831.718 54.8443 830.673 54.8443C829.629 54.8443 828.777 53.9924 828.777 52.948C828.777 51.9035 829.629 51.0517 830.673 51.0517Z" fill="#344756" fill-opacity="0.4"/>
<path d="M921.854 47.0222C920.832 49.2926 920.34 50.3074 919.025 52.3111C917.184 55.1111 914.588 58.6074 911.38 58.6296C908.525 58.6556 907.788 56.7667 903.91 56.8C900.036 56.8185 899.229 58.6667 896.369 58.637C893.158 58.6074 890.703 55.4593 888.862 52.663C883.714 44.8222 883.169 35.6296 886.351 30.7407C888.603 27.2741 892.162 25.237 895.506 25.237C898.914 25.237 901.054 27.1074 903.869 27.1074C906.603 27.1074 908.266 25.2333 912.206 25.2333C915.184 25.2333 918.332 26.8556 920.584 29.6556C913.221 33.6926 914.417 44.2074 921.854 47.0222ZM909.214 22.1037C910.647 20.263 911.736 17.6667 911.34 15.0222C909.003 15.1815 906.269 16.6741 904.673 18.6074C903.225 20.3704 902.025 22.9852 902.492 25.5148C905.043 25.5963 907.684 24.0741 909.214 22.1037Z" fill="#344756" fill-opacity="0.4"/>
<path d="M962.734 17.8665C961.691 17.8665 960.838 18.7198 960.838 19.7628V55.7924C960.838 56.8354 961.691 57.6887 962.734 57.6887H998.764C999.807 57.6887 1000.66 56.8354 1000.66 55.7924V19.7628C1000.66 18.7198 999.807 17.8665 998.764 17.8665H962.734ZM975.942 27.3479H978.521L983.071 48.2072H980.758L979.44 42.1109H974.89L973.543 48.2072H971.268L975.942 27.3479ZM988.079 27.3479C988.96 27.3479 989.519 27.9458 989.519 28.8276C989.519 29.7188 988.96 30.3165 988.079 30.3165H988.049C987.272 30.3165 986.675 29.7188 986.675 28.8276C986.675 27.9458 987.301 27.3479 988.079 27.3479ZM977.175 29.6609C976.928 31.2064 976.625 32.9708 976.321 34.3646L975.279 39.6739H979.156L978.084 34.335C977.781 32.8748 977.507 31.1779 977.26 29.6609H977.175ZM986.912 32.0887H989.282V48.2072H986.912V32.0887Z" fill="#344756" fill-opacity="0.4"/>
<path d="M83.0975 17.8665C82.0545 17.8665 81.2012 18.7198 81.2012 19.7628V55.7924C81.2012 56.8354 82.0545 57.6887 83.0975 57.6887H119.127C120.17 57.6887 121.023 56.8354 121.023 55.7924V19.7628C121.023 18.7198 120.17 17.8665 119.127 17.8665H83.0975ZM95.0253 27.3479C96.9121 27.3479 98.515 27.8033 99.5864 28.8368C100.553 29.8039 101.064 31.293 101.064 33.085C101.064 34.9623 100.61 36.233 99.8234 37.2665C98.733 38.7835 96.8179 39.5405 94.9975 39.5405C94.6087 39.5405 94.3055 39.5412 93.9641 39.5128V48.2072H91.6308V27.7461C92.5695 27.4996 93.6599 27.3479 95.0253 27.3479ZM95.4049 28.9035C94.855 28.9035 94.399 28.9605 94.0956 29.0553V37.2183C94.3706 37.2468 94.6458 37.2757 95.0345 37.2757C97.3101 37.2757 98.8549 35.7581 98.8549 32.8757C98.8549 30.7803 98.0123 28.9035 95.4049 28.9035ZM107.475 33.0368C108.679 33.0368 109.551 33.4073 110.186 33.7961L109.551 35.5683C108.954 35.1701 108.328 34.8961 107.512 34.8961C106.223 34.8961 105.559 35.8047 105.559 36.7813C105.559 37.7579 105.938 38.3362 107.446 39.3128C109.209 40.4126 110.594 41.7779 110.594 43.8165C110.594 46.7747 108.518 48.2072 105.996 48.2072C104.896 48.2072 103.672 47.875 103.009 47.3535L103.607 45.5905C104.147 45.9224 105.086 46.3479 106.062 46.3479C107.418 46.3479 108.299 45.5231 108.299 44.2146C108.299 43.0863 107.891 42.3005 106.346 41.3239C104.364 40.0723 103.294 38.7926 103.294 37.1239C103.294 34.7156 105.114 33.0368 107.475 33.0368Z" fill="#344756" fill-opacity="0.4"/>
<path fill-rule="evenodd" clip-rule="evenodd" d="M264.987 17.8517C264.248 17.8268 263.474 17.9557 262.698 18.2072C261.147 18.7103 259.521 19.6906 257.852 21.048C257.198 21.5799 256.538 22.188 255.876 22.8331C255.229 22.2044 254.582 21.6126 253.943 21.0924C252.276 19.7361 250.654 18.7554 249.106 18.2535C247.558 17.7516 246.017 17.736 244.752 18.4665C243.487 19.1969 242.73 20.5377 242.391 22.1294C242.052 23.7211 242.089 25.6166 242.43 27.7387C242.548 28.4758 242.717 29.2491 242.909 30.0368C242.187 30.2559 241.485 30.4863 240.834 30.7406C238.869 31.5079 237.243 32.4259 236.059 33.5183C234.876 34.6107 234.111 35.9366 234.111 37.3924C234.111 38.8482 234.876 40.1722 236.059 41.2646C237.243 42.357 238.869 43.2769 240.834 44.0443C241.53 44.3161 242.283 44.5609 243.061 44.7924C242.781 45.8381 242.555 46.8528 242.4 47.8146C242.059 49.9384 242.023 51.8341 242.363 53.4294C242.703 55.0247 243.46 56.3732 244.732 57.1072C246.003 57.8413 247.55 57.8232 249.102 57.3202C250.654 56.8171 252.278 55.8386 253.947 54.4813C254.594 53.9542 255.25 53.353 255.906 52.7146C256.565 53.3569 257.223 53.9609 257.874 54.4905C259.542 55.8468 261.165 56.8257 262.713 57.3276C264.261 57.8295 265.802 57.845 267.067 57.1146C268.332 56.3842 269.087 55.0433 269.426 53.4517C269.766 51.86 269.728 49.9663 269.387 47.8443C269.232 46.8798 269.005 45.8617 268.724 44.8128C269.528 44.5757 270.305 44.3243 271.022 44.0443C272.987 43.2769 274.613 42.357 275.797 41.2646C276.98 40.1722 277.745 38.8482 277.745 37.3924C277.745 35.9366 276.98 34.6107 275.797 33.5183C274.613 32.4259 272.987 31.5079 271.022 30.7406C270.362 30.4826 269.649 30.2493 268.915 30.0276C269.109 29.235 269.281 28.4562 269.4 27.7146C269.741 25.5909 269.777 23.6933 269.437 22.098C269.097 20.5027 268.338 19.1561 267.067 18.422C266.431 18.055 265.727 17.8765 264.987 17.8517ZM264.9 19.7813C265.364 19.794 265.76 19.9044 266.098 20.0998C266.775 20.4907 267.276 21.2515 267.543 22.5035C267.81 23.7556 267.801 25.4472 267.485 27.4091C267.378 28.0808 267.221 28.7926 267.043 29.522C265.103 29.0553 262.978 28.7089 260.713 28.5054C259.576 26.9301 258.408 25.4951 257.23 24.222C257.853 23.6138 258.472 23.045 259.076 22.5535C260.618 21.2997 262.077 20.4465 263.295 20.0517C263.904 19.8543 264.436 19.7686 264.9 19.7813ZM246.908 19.7868C247.374 19.7738 247.908 19.8592 248.519 20.0572C249.74 20.4532 251.202 21.306 252.745 22.5609C253.337 23.0425 253.942 23.6005 254.552 24.1943C253.365 25.4777 252.187 26.9252 251.043 28.5146C248.787 28.7219 246.671 29.0701 244.741 29.5387C244.564 28.8134 244.408 28.1051 244.3 27.4368C243.985 25.4733 243.977 23.7814 244.245 22.5257C244.512 21.2701 245.017 20.5036 245.7 20.1091C246.042 19.9118 246.441 19.7999 246.908 19.7868ZM255.906 25.5868C256.678 26.4274 257.451 27.3472 258.217 28.3368C257.464 28.3055 256.702 28.2868 255.928 28.2868C255.139 28.2868 254.362 28.3061 253.595 28.3387C254.361 27.3482 255.133 26.428 255.906 25.5868ZM255.928 30.2017C257.217 30.2017 258.474 30.2546 259.697 30.3443C260.538 31.5523 261.36 32.834 262.143 34.1905C262.831 35.3825 263.454 36.5726 264.021 37.748C263.448 38.9389 262.815 40.1451 262.117 41.3535C261.503 42.4172 260.861 43.4276 260.209 44.4017C258.829 44.5171 257.398 44.5813 255.928 44.5813C254.423 44.5813 252.96 44.5133 251.548 44.3924C250.907 43.4323 250.277 42.4373 249.672 41.3905C248.976 40.1849 248.346 38.9809 247.774 37.7924C248.349 36.5972 248.982 35.3865 249.682 34.1739C250.461 32.8244 251.28 31.5502 252.117 30.348C253.352 30.2563 254.624 30.2017 255.928 30.2017ZM262.137 30.5813C263.7 30.7763 265.168 31.0471 266.534 31.372C266.128 32.7005 265.629 34.0882 265.024 35.5202C264.632 34.7632 264.225 34.0036 263.785 33.2424C263.253 32.32 262.698 31.4406 262.137 30.5813ZM249.617 30.5961C249.068 31.4393 248.528 32.3016 248.006 33.2054C247.561 33.9763 247.146 34.7461 246.748 35.5128C246.149 34.0894 245.653 32.7096 245.25 31.3887C246.606 31.0631 248.065 30.7934 249.617 30.5961ZM268.409 31.8757C269.082 32.0791 269.731 32.2913 270.326 32.5239C272.137 33.2313 273.57 34.0689 274.498 34.9257C275.427 35.7826 275.83 36.5997 275.83 37.3924C275.83 38.1851 275.427 39.0022 274.498 39.8591C273.57 40.7159 272.137 41.5535 270.326 42.2609C269.664 42.5193 268.938 42.7537 268.182 42.9757C267.643 41.3081 266.954 39.5684 266.135 37.7924C267.077 35.7534 267.838 33.7653 268.409 31.8757ZM243.415 31.885C243.98 33.7557 244.731 35.724 245.659 37.7424C244.835 39.5288 244.144 41.2784 243.602 42.9554C242.873 42.7392 242.171 42.5112 241.53 42.2609C239.719 41.5535 238.286 40.7159 237.358 39.8591C236.429 39.0022 236.026 38.1851 236.026 37.3924C236.026 36.5997 236.429 35.7826 237.358 34.9257C238.286 34.0689 239.719 33.2313 241.53 32.5239C242.116 32.2949 242.754 32.0857 243.415 31.885ZM255.928 33.0368C253.321 33.0368 251.187 35.1706 251.187 37.7776C251.187 40.3846 253.321 42.5183 255.928 42.5183C258.535 42.5183 260.669 40.3846 260.669 37.7776C260.669 35.1706 258.535 33.0368 255.928 33.0368ZM246.771 40.0202C247.169 40.7907 247.584 41.5638 248.032 42.3387C248.382 42.945 248.739 43.5351 249.102 44.1146C247.829 43.9381 246.618 43.7145 245.482 43.4498C245.843 42.3427 246.276 41.1936 246.771 40.0202ZM265.048 40.0202C265.545 41.1963 265.978 42.3474 266.341 43.4572C265.201 43.7216 263.987 43.9444 262.709 44.1202C263.077 43.5336 263.44 42.9361 263.795 42.322C264.239 41.5528 264.652 40.785 265.048 40.0202ZM244.935 45.2905C246.651 45.6971 248.511 46.0093 250.484 46.2128C251.8 48.117 253.172 49.8281 254.552 51.3239C253.935 51.9257 253.323 52.4906 252.724 52.9776C251.183 54.2314 249.722 55.0828 248.504 55.4776C247.286 55.8724 246.377 55.8203 245.7 55.4294C245.023 55.0385 244.525 54.2778 244.258 53.0257C243.991 51.7737 243.998 50.0839 244.313 48.122C244.456 47.232 244.67 46.279 244.935 45.2905ZM266.889 45.298C267.157 46.2925 267.371 47.249 267.515 48.1443C267.83 50.1078 267.838 51.7997 267.571 53.0554C267.303 54.311 266.802 55.0794 266.119 55.4739C265.435 55.8684 264.518 55.9198 263.297 55.5239C262.075 55.1279 260.613 54.2751 259.071 53.0202C258.468 52.5296 257.852 51.9602 257.23 51.3535C258.619 49.8519 260.001 48.1321 261.326 46.2165C263.303 46.0144 265.168 45.704 266.889 45.298ZM252.958 46.4072C253.931 46.4603 254.918 46.4961 255.928 46.4961C256.905 46.4961 257.859 46.4624 258.802 46.4128C257.838 47.7128 256.856 48.8948 255.878 49.9591C254.9 48.8925 253.92 47.7085 252.958 46.4072Z" fill="#344756" fill-opacity="0.4"/>
<path d="M410.745 15.9702C398.701 15.9702 388.938 25.7333 388.938 37.7776C388.938 49.8219 398.701 59.585 410.745 59.585C422.789 59.585 432.552 49.8219 432.552 37.7776C432.552 25.7333 422.789 15.9702 410.745 15.9702ZM418.715 41.9163C417.729 44.2592 415.901 46.4048 412.518 46.4048C412.518 46.4048 411.083 36.4085 411.062 36.179C410.973 36.4199 408.948 41.6755 408.948 41.6755C407.995 44.1056 406.178 46.3934 402.795 46.4048L400.146 30.2446C402.346 30.2446 405.062 32.0508 405.259 35.0289C405.259 35.0289 405.598 40.952 405.61 41.4232C405.796 40.9198 408.095 34.9635 408.095 34.9635C409.004 32.522 410.723 30.2342 413.952 30.2342C413.952 30.2342 415.332 40.898 415.387 41.4014C415.529 40.898 417.424 34.9635 417.424 34.9635C418.332 32.522 420.095 30.2342 423.444 30.2342L418.715 41.9163Z" fill="#344756" fill-opacity="0.4"/>
<defs>
<clipPath id="clip0_871_41">
<rect width="47.4074" height="47.4074" fill="white" transform="translate(309.633 14.074)"/>
</clipPath>
<clipPath id="clip1_871_41">
<rect width="75.5555" height="75.5555" fill="white" transform="translate(541.857)"/>
</clipPath>
</defs>
</svg>
