<svg width="24" height="18" viewBox="0 0 24 18" fill="none" xmlns="http://www.w3.org/2000/svg">
<path fill-rule="evenodd" clip-rule="evenodd" d="M9 2.2232C9 1.63383 9.23705 1.0686 9.65901 0.65185C10.081 0.235103 10.6533 0.000976563 11.25 0.000976562H12.75C13.3467 0.000976562 13.919 0.235103 14.341 0.65185C14.7629 1.0686 15 1.63383 15 2.2232V3.70468C15 4.29405 14.7629 4.85928 14.341 5.27603C13.919 5.69278 13.3467 5.9269 12.75 5.9269V7.40838H21C21.1989 7.40838 21.3897 7.48643 21.5303 7.62534C21.671 7.76426 21.75 7.95267 21.75 8.14913V9.63061C21.75 9.82706 21.671 10.0155 21.5303 10.1544C21.3897 10.2933 21.1989 10.3713 21 10.3713C20.8011 10.3713 20.6103 10.2933 20.4697 10.1544C20.329 10.0155 20.25 9.82706 20.25 9.63061V8.88987H12.75V9.63061C12.75 9.82706 12.671 10.0155 12.5303 10.1544C12.3897 10.2933 12.1989 10.3713 12 10.3713C11.8011 10.3713 11.6103 10.2933 11.4697 10.1544C11.329 10.0155 11.25 9.82706 11.25 9.63061V8.88987H3.75V9.63061C3.75 9.82706 3.67098 10.0155 3.53033 10.1544C3.38968 10.2933 3.19891 10.3713 3 10.3713C2.80109 10.3713 2.61032 10.2933 2.46967 10.1544C2.32902 10.0155 2.25 9.82706 2.25 9.63061V8.14913C2.25 7.95267 2.32902 7.76426 2.46967 7.62534C2.61032 7.48643 2.80109 7.40838 3 7.40838H11.25V5.9269C10.6533 5.9269 10.081 5.69278 9.65901 5.27603C9.23705 4.85928 9 4.29405 9 3.70468V2.2232ZM0 14.0751C0 13.4857 0.237053 12.9205 0.65901 12.5037C1.08097 12.087 1.65326 11.8528 2.25 11.8528H3.75C4.34674 11.8528 4.91903 12.087 5.34099 12.5037C5.76295 12.9205 6 13.4857 6 14.0751V15.5565C6 16.1459 5.76295 16.7111 5.34099 17.1279C4.91903 17.5446 4.34674 17.7788 3.75 17.7788H2.25C1.65326 17.7788 1.08097 17.5446 0.65901 17.1279C0.237053 16.7111 0 16.1459 0 15.5565L0 14.0751ZM9 14.0751C9 13.4857 9.23705 12.9205 9.65901 12.5037C10.081 12.087 10.6533 11.8528 11.25 11.8528H12.75C13.3467 11.8528 13.919 12.087 14.341 12.5037C14.7629 12.9205 15 13.4857 15 14.0751V15.5565C15 16.1459 14.7629 16.7111 14.341 17.1279C13.919 17.5446 13.3467 17.7788 12.75 17.7788H11.25C10.6533 17.7788 10.081 17.5446 9.65901 17.1279C9.23705 16.7111 9 16.1459 9 15.5565V14.0751ZM18 14.0751C18 13.4857 18.2371 12.9205 18.659 12.5037C19.081 12.087 19.6533 11.8528 20.25 11.8528H21.75C22.3467 11.8528 22.919 12.087 23.341 12.5037C23.7629 12.9205 24 13.4857 24 14.0751V15.5565C24 16.1459 23.7629 16.7111 23.341 17.1279C22.919 17.5446 22.3467 17.7788 21.75 17.7788H20.25C19.6533 17.7788 19.081 17.5446 18.659 17.1279C18.2371 16.7111 18 16.1459 18 15.5565V14.0751Z" fill="#344756"/>
</svg>
