<svg width="24" height="9" viewBox="0 0 24 9" fill="none" xmlns="http://www.w3.org/2000/svg">
<path d="M1.71429 5.10643C2.16894 5.10643 2.60498 5.28573 2.92647 5.60488C3.24796 5.92404 3.42857 6.3569 3.42857 6.80825C3.42857 7.2596 3.24796 7.69246 2.92647 8.01162C2.60498 8.33077 2.16894 8.51007 1.71429 8.51007C1.25963 8.51007 0.823594 8.33077 0.502103 8.01162C0.180612 7.69246 0 7.2596 0 6.80825C0 6.3569 0.180612 5.92404 0.502103 5.60488C0.823594 5.28573 1.25963 5.10643 1.71429 5.10643ZM1.71429 0.000976562C2.16894 0.000976562 2.60498 0.180275 2.92647 0.499428C3.24796 0.818581 3.42857 1.25144 3.42857 1.70279C3.42857 2.15415 3.24796 2.58701 2.92647 2.90616C2.60498 3.22531 2.16894 3.40461 1.71429 3.40461C1.25963 3.40461 0.823594 3.22531 0.502103 2.90616C0.180612 2.58701 0 2.15415 0 1.70279C0 1.25144 0.180612 0.818581 0.502103 0.499428C0.823594 0.180275 1.25963 0.000976562 1.71429 0.000976562ZM6.85714 5.10643C7.3118 5.10643 7.74783 5.28573 8.06933 5.60488C8.39082 5.92404 8.57143 6.3569 8.57143 6.80825C8.57143 7.2596 8.39082 7.69246 8.06933 8.01162C7.74783 8.33077 7.3118 8.51007 6.85714 8.51007C6.40249 8.51007 5.96645 8.33077 5.64496 8.01162C5.32347 7.69246 5.14286 7.2596 5.14286 6.80825C5.14286 6.3569 5.32347 5.92404 5.64496 5.60488C5.96645 5.28573 6.40249 5.10643 6.85714 5.10643ZM6.85714 0.000976562C7.3118 0.000976562 7.74783 0.180275 8.06933 0.499428C8.39082 0.818581 8.57143 1.25144 8.57143 1.70279C8.57143 2.15415 8.39082 2.58701 8.06933 2.90616C7.74783 3.22531 7.3118 3.40461 6.85714 3.40461C6.40249 3.40461 5.96645 3.22531 5.64496 2.90616C5.32347 2.58701 5.14286 2.15415 5.14286 1.70279C5.14286 1.25144 5.32347 0.818581 5.64496 0.499428C5.96645 0.180275 6.40249 0.000976562 6.85714 0.000976562ZM12 5.10643C12.4547 5.10643 12.8907 5.28573 13.2122 5.60488C13.5337 5.92404 13.7143 6.3569 13.7143 6.80825C13.7143 7.2596 13.5337 7.69246 13.2122 8.01162C12.8907 8.33077 12.4547 8.51007 12 8.51007C11.5453 8.51007 11.1093 8.33077 10.7878 8.01162C10.4663 7.69246 10.2857 7.2596 10.2857 6.80825C10.2857 6.3569 10.4663 5.92404 10.7878 5.60488C11.1093 5.28573 11.5453 5.10643 12 5.10643ZM12 0.000976562C12.4547 0.000976562 12.8907 0.180275 13.2122 0.499428C13.5337 0.818581 13.7143 1.25144 13.7143 1.70279C13.7143 2.15415 13.5337 2.58701 13.2122 2.90616C12.8907 3.22531 12.4547 3.40461 12 3.40461C11.5453 3.40461 11.1093 3.22531 10.7878 2.90616C10.4663 2.58701 10.2857 2.15415 10.2857 1.70279C10.2857 1.25144 10.4663 0.818581 10.7878 0.499428C11.1093 0.180275 11.5453 0.000976562 12 0.000976562ZM17.1429 5.10643C17.5975 5.10643 18.0335 5.28573 18.355 5.60488C18.6765 5.92404 18.8571 6.3569 18.8571 6.80825C18.8571 7.2596 18.6765 7.69246 18.355 8.01162C18.0335 8.33077 17.5975 8.51007 17.1429 8.51007C16.6882 8.51007 16.2522 8.33077 15.9307 8.01162C15.6092 7.69246 15.4286 7.2596 15.4286 6.80825C15.4286 6.3569 15.6092 5.92404 15.9307 5.60488C16.2522 5.28573 16.6882 5.10643 17.1429 5.10643ZM17.1429 0.000976562C17.5975 0.000976562 18.0335 0.180275 18.355 0.499428C18.6765 0.818581 18.8571 1.25144 18.8571 1.70279C18.8571 2.15415 18.6765 2.58701 18.355 2.90616C18.0335 3.22531 17.5975 3.40461 17.1429 3.40461C16.6882 3.40461 16.2522 3.22531 15.9307 2.90616C15.6092 2.58701 15.4286 2.15415 15.4286 1.70279C15.4286 1.25144 15.6092 0.818581 15.9307 0.499428C16.2522 0.180275 16.6882 0.000976562 17.1429 0.000976562ZM22.2857 5.10643C22.7404 5.10643 23.1764 5.28573 23.4979 5.60488C23.8194 5.92404 24 6.3569 24 6.80825C24 7.2596 23.8194 7.69246 23.4979 8.01162C23.1764 8.33077 22.7404 8.51007 22.2857 8.51007C21.8311 8.51007 21.395 8.33077 21.0735 8.01162C20.752 7.69246 20.5714 7.2596 20.5714 6.80825C20.5714 6.3569 20.752 5.92404 21.0735 5.60488C21.395 5.28573 21.8311 5.10643 22.2857 5.10643ZM22.2857 0.000976562C22.7404 0.000976562 23.1764 0.180275 23.4979 0.499428C23.8194 0.818581 24 1.25144 24 1.70279C24 2.15415 23.8194 2.58701 23.4979 2.90616C23.1764 3.22531 22.7404 3.40461 22.2857 3.40461C21.8311 3.40461 21.395 3.22531 21.0735 2.90616C20.752 2.58701 20.5714 2.15415 20.5714 1.70279C20.5714 1.25144 20.752 0.818581 21.0735 0.499428C21.395 0.180275 21.8311 0.000976562 22.2857 0.000976562Z" fill="#344756"/>
</svg>
