<svg width="20" height="24" viewBox="0 0 20 24" fill="none" xmlns="http://www.w3.org/2000/svg">
<path d="M9.75713 22.4772C9.7369 22.6092 9.72576 22.7424 9.72379 22.8758C9.72379 23.5514 10.1905 24.001 10.8351 24.001C11.4263 24.001 11.9286 23.62 12.0686 22.9445L13.2999 16.9579H15.9759C16.9116 16.9579 17.3472 16.4396 17.3472 15.7464C17.3472 15.0553 16.9294 14.5725 15.9759 14.5725H13.7867L14.9335 8.98231H17.7451C18.7008 8.98231 19.1186 8.47955 19.1186 7.77081C19.1186 7.07757 18.7008 6.61025 17.7451 6.61025H15.4203L16.4782 1.50731C16.4995 1.38734 16.5114 1.2659 16.5138 1.14408C16.5156 0.993509 16.4871 0.844098 16.4301 0.704636C16.3731 0.565175 16.2887 0.438479 16.1819 0.331999C16.075 0.225519 15.9479 0.141405 15.8079 0.0846029C15.668 0.0278006 15.518 -0.000543025 15.3669 0.00123911C15.0871 -0.00408075 14.8143 0.0881863 14.5956 0.262088C14.3768 0.435989 14.2259 0.680594 14.169 0.95361L13.0065 6.61025H8.03908L9.09925 1.50731C9.11703 1.41872 9.13259 1.24597 9.13259 1.14408C9.13381 0.99235 9.10446 0.841915 9.04628 0.701689C8.98811 0.561464 8.90228 0.434299 8.79388 0.327729C8.68549 0.221159 8.55673 0.137351 8.41525 0.0812698C8.27376 0.0251883 8.12241 -0.0020258 7.97018 0.00123911C7.69332 -0.000365306 7.42446 0.0936374 7.2093 0.267263C6.99414 0.440888 6.84597 0.683417 6.78999 0.95361L5.62313 6.61025H3.14273C2.18702 6.61025 1.7714 7.09751 1.7714 7.78853C1.7714 8.47955 2.18702 8.98231 3.14273 8.98231H5.15639L4.01176 14.5703H1.35355C0.417846 14.5703 0 15.0553 0 15.7464C0 16.4396 0.417846 16.9579 1.35577 16.9579H3.52501L2.37816 22.4772C2.36038 22.5658 2.34482 22.754 2.34482 22.8758C2.34482 23.5514 2.81157 24.001 3.45611 24.001C4.0451 24.001 4.54962 23.62 4.68742 22.9445L5.92096 16.9579H10.904L9.75935 22.4772H9.75713ZM7.53455 8.94688H12.5709L11.4263 14.6234H6.35436L7.53677 8.94688H7.53455Z" fill="#344756"/>
</svg>
